<?xml version="1.0" encoding="UTF-8" standalone="no"?>
<svg
   width="181.73045pt"
   height="244.65729pt"
   viewBox="0 0 181.73044 244.6573"
   version="1.1"
   id="svg64"
   sodipodi:docname="duelanti.svg"
   inkscape:version="1.3.2 (091e20ef0f, 2023-11-25, custom)"
   xmlns:inkscape="http://www.inkscape.org/namespaces/inkscape"
   xmlns:sodipodi="http://sodipodi.sourceforge.net/DTD/sodipodi-0.dtd"
   xmlns="http://www.w3.org/2000/svg"
   xmlns:svg="http://www.w3.org/2000/svg">
  <sodipodi:namedview
     id="namedview64"
     pagecolor="#ffffff"
     bordercolor="#000000"
     borderopacity="0.25"
     inkscape:showpageshadow="2"
     inkscape:pageopacity="0.0"
     inkscape:pagecheckerboard="0"
     inkscape:deskcolor="#d1d1d1"
     inkscape:document-units="pt"
     inkscape:zoom="1.8339944"
     inkscape:cx="113.41365"
     inkscape:cy="148.58278"
     inkscape:window-width="1920"
     inkscape:window-height="1011"
     inkscape:window-x="0"
     inkscape:window-y="32"
     inkscape:window-maximized="1"
     inkscape:current-layer="svg64" />
  <defs
     id="defs3">
    <clipPath
       id="clip-0">
      <path
         clip-rule="nonzero"
         d="M 0,0 H 1207.5586 V 858.89844 H 0 Z m 0,0"
         id="path1" />
    </clipPath>
    <clipPath
       id="clip-1">
      <path
         clip-rule="nonzero"
         d="M 0,0 H 607 V 858.89844 H 0 Z m 0,0"
         id="path2" />
    </clipPath>
    <clipPath
       id="clip-2">
      <path
         clip-rule="nonzero"
         d="m 606,0 h 601.5586 V 858.89844 H 606 Z m 0,0"
         id="path3" />
    </clipPath>
  </defs>
  <path
     fill-rule="nonzero"
     fill="#231f20"
     fill-opacity="1"
     d="m 10.22656,214.33307 c 0.54687,0.19922 1.55859,0.57031 3.02734,1.1211 h 2.875 c 0.3711,-0.10157 0.71485,-0.23047 1.02735,-0.39454 0.30859,-0.16015 0.97656,-0.52734 1.99609,-1.10156 0.375,-0.54687 0.75391,-1.13281 1.14063,-1.7539 0.38671,-0.625 0.70312,-1.15625 0.95312,-1.60547 0.19531,-0.54688 0.33984,-0.98438 0.42578,-1.3086 0.0899,-0.32422 0.1836,-0.69531 0.28125,-1.12109 v -3.35938 l -0.89453,-2.94921 c -0.32422,-0.5 -0.61719,-0.97657 -0.87891,-1.4375 -0.26171,-0.46094 -0.51562,-0.92969 -0.76562,-1.40235 -0.99609,-1.04687 -1.58203,-1.64844 -1.75391,-1.80859 -0.17578,-0.16406 -0.85937,-0.73047 -2.05468,-1.69922 l -2.08985,-0.78516 h -2.16797 l -1.26953,0.52344 -1.12109,1.15625 -0.29688,1.38281 c -0.125,1.46875 -0.24218,2.9375 -0.35547,4.40625 -0.11328,1.46875 -0.16796,3.69532 -0.16796,6.6836 0,1.39453 0.0625,2.39062 0.1875,2.98828 0.125,0.59765 0.26171,1.16797 0.41015,1.71875 0.27344,0.22265 0.76953,0.47265 1.49219,0.74609 m -6.42188,3.92188 -0.11328,-0.78516 1.26953,-1.08203 c 0.17579,-0.52344 0.28907,-0.84375 0.33594,-0.95313 0.0508,-0.11328 0.11328,-0.20703 0.1875,-0.28125 V 203.95026 L 4.96093,200.2901 4.28906,198.49713 c -0.29688,0 -0.72266,-0.0156 -1.26953,-0.0547 -0.54688,-0.0391 -1.33203,-0.10547 -2.35156,-0.20703 -0.0742,-0.19922 -0.13672,-0.50782 -0.1875,-0.9336 l 1.08203,-0.10937 c 0.15234,-0.15235 0.5,-0.33594 1.04687,-0.5625 0.30078,-0.1211 0.82031,-0.33594 1.57031,-0.63282 1.29297,-1.09765 2.14454,-1.79296 2.55469,-2.09375 0.41406,-0.29687 0.90235,-0.59765 1.47656,-0.89453 l 3.84766,-1.19531 4.89063,0.26172 c 1.34375,0.64844 2.70312,1.29297 4.07031,1.94141 0.74609,0.84765 1.19531,1.35937 1.34375,1.53125 0.375,0.39843 0.80859,0.80859 1.30859,1.23437 l 1.45703,2.23828 0.59766,2.98828 v 4.62891 l -1.34375,3.96094 c -0.44531,0.59765 -0.87109,1.16797 -1.26563,1.71875 -0.39843,0.54687 -0.79687,1.03125 -1.19531,1.45312 -1.51562,0.97266 -2.76953,1.74219 -3.76562,2.31641 -1.56641,0.92187 -2.3711,1.40625 -2.42188,1.45703 l -2.125,0.52344 h -3.28125 c -0.17187,-0.0508 -0.34765,-0.10157 -0.52344,-0.14844 -0.17187,-0.0508 -0.35937,-0.125 -0.55859,-0.22656 H 6.45312 l -1.23047,0.5625 z m 0,0"
     id="path7" />
  <path
     fill-rule="nonzero"
     fill="#231f20"
     fill-opacity="1"
     d="m 39.35547,219.0362 -2.08985,-0.29688 c -0.19922,-0.19922 -0.35547,-0.32422 -0.46875,-0.37109 -0.10937,-0.0508 -0.58984,-0.22656 -1.4375,-0.52344 -0.96875,-0.82031 -1.48047,-1.24219 -1.53125,-1.26953 -0.34765,-0.29688 -0.75781,-0.71875 -1.23047,-1.26563 l -1.23437,-2.27343 -0.67188,-3.50391 0.1875,-3.54297 c 0.39844,-1.14062 0.84766,-2.28515 1.34375,-3.42969 0.27344,-0.62109 0.46094,-1.10546 0.5625,-1.45312 0.32032,-0.37109 0.64453,-0.76953 0.96875,-1.19141 0.47266,-0.67187 0.73438,-1.01953 0.78516,-1.04687 l 0.26172,-0.89063 c -1.07031,-0.125 -1.73828,-0.21484 -2,-0.26172 -0.26172,-0.0508 -0.51563,-0.125 -0.76563,-0.22656 -0.76953,0.10156 -1.28515,0.1836 -1.54687,0.24219 -0.26172,0.0625 -0.50391,0.16797 -0.73047,0.32031 h -0.70703 c -0.22656,0 -0.46094,-0.0273 -0.71094,-0.0742 0.0742,-0.15234 0.19922,-0.39843 0.375,-0.75 1.09375,-0.69531 2.20313,-1.40625 3.32031,-2.125 l 5.23047,-0.22656 c 0.72266,-0.34766 1.10547,-0.53516 1.15625,-0.55859 0.27344,-0.125 0.58594,-0.1875 0.9336,-0.1875 l -0.44922,1.19531 c -0.4961,0.39844 -0.88282,0.78125 -1.15625,1.15625 -0.17578,0.25 -0.53516,0.74609 -1.08203,1.49609 l -1.45704,2.5 c -0.19921,1.07032 -0.48437,2.33985 -0.85937,3.8086 v 3.17578 c 0.25,0.89453 0.48437,1.71094 0.71094,2.44531 0.22265,0.73438 0.48437,1.44922 0.78515,2.14844 0.91797,1.01953 1.46094,1.60937 1.6211,1.77344 0.16406,0.16015 0.55468,0.47656 1.17968,0.95312 0.57032,0.29688 1.00782,0.49609 1.30469,0.59375 0.30078,0.10156 0.75781,0.23828 1.38281,0.41406 l 4.36719,-0.1875 c 0.47266,-0.25 0.94922,-0.48437 1.42188,-0.71093 l 1.7539,-2.35157 0.375,-3.35937 -0.59765,-8.06641 c -0.19922,-0.79687 -0.33594,-1.28515 -0.41407,-1.45703 -0.0742,-0.17578 -0.22265,-0.4375 -0.44531,-0.78516 l -0.85937,-0.33593 h -1.69922 c -0.51172,0 -0.97656,-0.0586 -1.40235,-0.1836 0,-0.125 0.0156,-0.26953 0.0391,-0.43359 0.0234,-0.16016 0.0625,-0.30469 0.11328,-0.42969 0.24609,-0.0742 0.54687,-0.1875 0.89453,-0.33594 0.69531,-0.29687 1.44531,-0.58593 2.24219,-0.85937 0.47265,-0.32031 1.26953,-0.89453 2.39062,-1.71484 0.71875,-0.52344 1.37891,-0.96094 1.97656,-1.3086 0.44922,0.0977 0.73438,0.21094 0.85938,0.33594 -0.125,1.51953 -0.23047,3.07422 -0.31641,4.66797 -0.0898,1.59375 -0.13281,4.25781 -0.13281,7.99219 l 0.15234,5.41406 0.51954,4.03515 0.75,1.37891 0.82031,0.74609 -0.0391,0.41407 c -0.6211,0 -1.55469,0.0352 -2.80079,0.10937 -1.24218,0.0742 -2.0039,0.11328 -2.27734,0.11328 l -0.37109,-0.52343 c 0,-0.54688 0.0117,-0.92579 0.0351,-1.13672 0.0234,-0.21485 0.0742,-0.65625 0.14844,-1.32813 l -0.67187,0.29688 c -0.76954,0.76172 -1.28516,1.25 -1.54688,1.46093 -0.26172,0.20704 -0.75391,0.53516 -1.47656,0.98047 l -2.46485,0.625 z m 0,0"
     id="path8" />
  <path
     fill-rule="nonzero"
     fill="#231f20"
     fill-opacity="1"
     d="m 68.51953,219.63385 c -0.9961,0 -1.94531,-0.0977 -2.85547,-0.29687 -0.91016,-0.19922 -1.8125,-0.48438 -2.70703,-0.85938 -0.54688,-0.19922 -1.07031,-0.5039 -1.57031,-0.91406 -0.4961,-0.41016 -1.19141,-1.17578 -2.08985,-2.29687 -0.97265,-1.19532 -1.60547,-2.41407 -1.90625,-3.66016 -0.19922,-0.82031 -0.29687,-2.15234 -0.29687,-3.99609 v -2.24219 c 0,-0.47266 0.17578,-1.11719 0.52343,-1.94141 0.0977,-0.24609 0.6211,-1.2539 1.56641,-3.02344 0.52344,-0.87109 1.625,-1.9375 3.30469,-3.1914 1.68359,-1.25781 3.00781,-2.03906 3.98047,-2.33594 0.96875,-0.29687 2.00781,-0.63672 3.11718,-1.00781 1.10547,-0.375 2.17188,-0.5625 3.19141,-0.5625 0.72266,0 1.55078,0.0586 2.48438,0.17187 0.93359,0.10938 1.5,0.16797 1.69921,0.16797 0.0234,0 0.125,-0.0586 0.29688,-0.16797 0.17578,-0.11328 0.32422,-0.17187 0.44922,-0.17187 0.17578,0 0.34765,0.14062 0.52344,0.41406 -0.0508,0.0742 -0.38672,0.41406 -1.00782,1.01563 -0.39843,0.39843 -0.625,0.71484 -0.67187,0.9375 -0.17578,0.5 -0.35156,1 -0.52344,1.5 -0.25,0.72656 -0.375,1.28906 -0.375,1.6914 -0.0469,0.375 -0.0937,0.70313 -0.12891,0.99219 -0.0391,0.28516 -0.0547,0.55469 -0.0547,0.80469 l -0.85938,0.48828 v -2.46485 c 0,-0.0976 -0.0937,-0.27734 -0.28125,-0.53906 -0.1875,-0.26172 -0.33203,-0.41797 -0.42969,-0.46875 -0.42187,-0.34765 -0.74609,-0.59765 -0.97265,-0.74609 -0.44531,-0.30078 -0.78125,-0.44922 -1.00781,-0.44922 l -3.66016,-0.11328 c -0.69531,0 -1.35938,0.11328 -1.99609,0.33594 -0.63672,0.22656 -1.27735,0.45312 -1.92188,0.67578 -0.17578,0.0469 -0.45703,0.26562 -0.83984,0.65234 -0.38672,0.38672 -0.64453,0.70313 -0.76563,0.95313 -0.79687,1.54296 -1.28515,2.53906 -1.45703,2.98437 -0.5,1.22266 -0.74609,2.29297 -0.74609,3.21484 0,0.0742 0.0977,0.21094 0.29687,0.41016 0.0977,0.0977 0.27344,0.26172 0.52344,0.48438 1.14453,0 2.875,-0.0469 5.19141,-0.14844 2.3125,-0.10156 3.98046,-0.14844 5.0039,-0.14844 1.1211,0 2.16406,-0.1875 3.13672,-0.5625 1.19531,-0.44922 1.89063,-0.69531 2.08984,-0.74609 -0.0742,0.19922 -0.39843,0.95703 -0.96875,2.27734 -0.17578,0.39844 -0.28906,0.74609 -0.33593,1.04688 -0.10157,0.29687 -0.17578,0.50781 -0.22657,0.63281 -0.17187,0.42578 -0.29687,0.63672 -0.37109,0.63672 -0.15234,0 -0.38672,-0.1875 -0.71094,-0.5625 -0.10156,-0.0977 -0.22265,-0.27344 -0.375,-0.51953 -0.0742,-0.0274 -0.57031,-0.16407 -1.49218,-0.41407 -0.92188,-0.24609 -2.17969,-0.37109 -3.77344,-0.37109 l -7.50391,0.0742 c 0.2461,0.84765 0.47656,1.55469 0.69141,2.1289 0.21094,0.57422 0.47656,1.21485 0.80078,1.92188 0.32422,0.71094 0.91406,1.47656 1.77344,2.29687 0.85937,0.82032 1.64843,1.3711 2.37109,1.64454 0.67188,0.32421 1.35938,0.66015 2.05469,1.00781 0.54687,0.25 1.18359,0.375 1.90625,0.375 2.33984,0 3.89453,-0.14063 4.66797,-0.41016 0.125,-0.0273 0.22265,-0.0781 0.29687,-0.15234 0.7461,0 1.39453,-0.16016 1.94141,-0.48438 0.0273,-0.0273 0.375,-0.25 1.04687,-0.67187 l 1.00782,-0.1875 0.26171,0.29687 c -0.99609,0.84766 -1.51953,1.28516 -1.5664,1.3086 -0.5,0.34765 -1.11719,0.70312 -1.85156,1.0625 -0.73438,0.36328 -1.48829,0.7539 -2.25782,1.17968 -0.99609,0.4961 -1.8164,0.8086 -2.46484,0.9336 z m 0,0"
     id="path9" />
  <path
     fill-rule="nonzero"
     fill="#231f20"
     fill-opacity="1"
     d="m 87.60156,218.43854 c -0.27344,-0.0937 -0.65234,-0.20312 -1.13672,-0.33594 -0.48437,-0.1289 -0.86719,-0.23828 -1.14062,-0.33593 -1.04297,0 -1.89063,0.0742 -2.53907,0.22656 -0.27343,0.0508 -0.83203,0.18359 -1.67968,0.41015 l 0.14843,-0.71093 c 0.25,-0.19922 0.44141,-0.41016 0.57813,-0.63282 0.13672,-0.22265 0.33203,-0.55078 0.58203,-0.97265 0.14844,-1.74219 0.26172,-2.96094 0.33594,-3.66016 0.0742,-0.69531 0.13672,-1.28125 0.18359,-1.7539 l 0.15234,-15.60938 -0.5625,-3.32422 c -0.34765,-0.125 -0.55859,-0.20703 -0.63281,-0.24219 -0.0742,-0.0351 -0.16406,-0.11718 -0.26172,-0.24218 l -2.94922,-0.0391 0.14844,-1.08203 1.56641,-0.59765 5.11719,-3.69922 1.12109,0.11328 c 0,0.87109 -0.0898,2.76172 -0.27344,5.66016 -0.17969,2.89843 -0.33594,5.73828 -0.46484,8.51171 -0.13281,2.77735 -0.19531,5.76954 -0.19531,8.98047 v 0.375 c 0,0.54688 0.0625,1.32032 0.1875,2.31641 0.125,0.99609 0.24609,1.66797 0.37109,2.01562 l 0.48828,0.5586 c 1.36719,0.44922 2.12109,0.69922 2.25781,0.75 0.13672,0.0508 0.25391,0.14844 0.35547,0.30078 l 2.76172,0.59375 c 0.42578,-0.10156 0.89063,-0.21875 1.40234,-0.35547 0.50782,-0.13672 0.92579,-0.25391 1.25,-0.35547 0.72266,-0.42187 1.1875,-0.67578 1.40235,-0.76562 0.21094,-0.0859 0.42578,-0.12891 0.65234,-0.12891 l 0.1875,0.26172 -0.67187,0.99609 -1.86719,1.33203 -2.98828,1.44141 z m 0,0"
     id="path10" />
  <path
     fill-rule="nonzero"
     fill="#231f20"
     fill-opacity="1"
     d="m 94.90234,217.05573 c -0.23437,0.0898 -0.9375,0.30078 -2.10937,0.63672 -0.29688,0 -0.52344,-0.0234 -0.67188,-0.0742 l 0.14844,-0.85938 1.67969,-1.75781 c 0.15234,-0.30078 0.44921,-0.78516 0.89843,-1.46094 0.44922,-0.67187 0.84766,-1.30859 1.19532,-1.90625 0.24609,-0.55078 0.60937,-1.22265 1.08203,-2.01953 0.82031,-1.37109 1.51953,-2.57031 2.08984,-3.58984 0.10156,-0.25 0.26172,-0.58594 0.48828,-1.01172 0.22266,-0.42188 0.41016,-0.84766 0.5586,-1.27344 0.0508,-0.0469 0.17578,-0.26172 0.375,-0.63281 0.34765,-0.64844 0.57031,-1.02344 0.67187,-1.125 0.125,-0.32031 0.37109,-0.80859 0.74609,-1.45703 0.7461,-1.27344 1.42969,-2.49219 2.05469,-3.66797 0.72266,-2.14453 1.24219,-3.75 1.56641,-4.82031 0.5,-1.59766 0.76172,-2.42188 0.78515,-2.47266 0.22266,0 0.41016,0.0391 0.5586,0.11328 0.27734,0.59766 0.46094,1.01953 0.5625,1.26953 0.27344,0.7461 0.42187,1.13282 0.44922,1.15625 1.36718,3.73828 2.40234,6.48828 3.09765,8.25782 0.6211,1.61718 1.44532,3.60937 2.46485,5.97656 1.32031,2.51562 2.14062,4.05859 2.46484,4.63281 0.32422,0.57031 0.84766,1.42969 1.57031,2.57813 l 1.86719,1.86718 c 0.49609,0.19922 0.89844,0.3711 1.21094,0.52344 0.3125,0.14844 0.60547,0.32422 0.8789,0.52344 l -0.14843,0.29687 -6.72266,-0.14843 -2.09375,0.22265 v -0.82031 l 0.59766,-0.1875 c -0.0469,-0.47266 -0.14844,-1.01563 -0.29688,-1.625 -0.14844,-0.60938 -0.28515,-1.17578 -0.41015,-1.69922 -0.39844,-1.07031 -0.91016,-2.32812 -1.53125,-3.76953 -0.42579,-0.99609 -0.8711,-2.15234 -1.34375,-3.47266 -0.125,-0.0508 -0.48829,-0.77734 -1.08594,-2.1875 -0.59766,-1.40625 -0.9336,-2.12109 -1.00781,-2.14453 -0.17188,-0.34765 -0.58204,-1.18359 -1.23047,-2.5039 -0.19922,-0.42188 -0.32422,-0.76954 -0.375,-1.04297 l -0.59766,0.22265 c -0.76953,1.59375 -1.36719,2.83594 -1.79297,3.73438 -0.74609,1.66797 -1.20703,2.64062 -1.3789,2.91406 -0.44922,1.09375 -0.97266,2.30078 -1.57032,3.62109 -0.37109,0.82032 -0.57422,1.3086 -0.59765,1.45704 1.14453,-0.25 2.0039,-0.45313 2.57812,-0.61719 0.57031,-0.16016 1.24219,-0.39063 2.01563,-0.69141 h 1.86718 c 0.14844,0.0742 0.46875,0.24219 0.95313,0.50781 0.48437,0.26954 1.05078,0.53516 1.69922,0.80079 h 1.60547 l 0.0742,0.78515 c -0.52344,0.26172 -1.03907,0.47656 -1.55079,0.64453 -0.50781,0.16407 -1.72265,0.53516 -3.64062,1.10938 h -1.56641 c -0.5,-0.375 -0.99609,-0.73438 -1.49609,-1.08203 -0.34766,-0.25 -0.72266,-0.47657 -1.12109,-0.67188 h -0.41016 c -0.24609,0 -0.49609,0.0117 -0.74609,0.0352 -0.25,0.0234 -0.46094,0.0391 -0.63282,0.0391 -0.375,0.57031 -0.6875,1.15625 -0.93359,1.75391 -0.25,0.59765 -0.5625,1.35547 -0.93359,2.27734 v 1.41797 c 0.29687,0.19922 0.47265,0.32422 0.51953,0.375 0.0508,0.0508 0.15234,0.19922 0.30078,0.44922 -0.6211,0.0234 -1.1836,0.0547 -1.67969,0.0937 -0.5,0.0352 -0.92187,0.0547 -1.26953,0.0547 -0.25,0.20703 -0.49219,0.35546 -0.73047,0.44531"
     id="path11" />
  <path
     fill-rule="nonzero"
     fill="#231f20"
     fill-opacity="1"
     d="m 141.1914,220.57917 c -0.0742,0.0351 -0.33593,0.10546 -0.78515,0.20312 -0.6211,-1.12891 -1.38282,-2.35937 -2.27735,-3.6875 -0.59765,-0.87109 -1.05859,-1.58203 -1.38281,-2.12891 -0.125,-0.0742 -0.64062,-0.73437 -1.55078,-1.97656 -0.90625,-1.24609 -1.42188,-1.91797 -1.54688,-2.01953 -0.30078,-0.51953 -0.63671,-1.04297 -1.00781,-1.56641 -0.52344,-0.72265 -1.39453,-1.85546 -2.61719,-3.39843 l -3.28515,-3.66016 -0.82031,-0.14844 c -0.17579,2.03907 -0.27344,3.29297 -0.30079,3.75391 -0.0234,0.46094 -0.0352,1.3125 -0.0352,2.55469 0.22265,1.37109 0.37109,2.45312 0.44531,3.25 0.17578,1.96875 0.28906,3.07031 0.33594,3.30468 0.0508,0.23829 0.12109,0.52344 0.20703,0.85938 0.0859,0.33594 0.17969,0.61719 0.28125,0.83984 l 0.78516,0.52344 0.14843,0.67188 c -0.59765,0 -1.17578,-0.0234 -1.73828,-0.0742 -0.55859,-0.0508 -1.13672,-0.11328 -1.73437,-0.1875 -0.27735,0.10156 -0.55469,0.21093 -0.83985,0.33593 -0.28906,0.125 -0.53125,0.25 -0.73047,0.375 l -1.41796,0.11329 -0.14844,-0.5625 c 0.44531,-0.42579 0.74609,-0.73829 0.89453,-0.9375 0.14844,-0.19922 0.4375,-0.63672 0.85937,-1.3125 v -11.3086 l -0.67187,-4.34375 c -0.375,-0.65234 -0.60547,-1.03906 -0.69141,-1.16406 -0.0859,-0.125 -0.23047,-0.26172 -0.42968,-0.41016 -0.92188,0 -2.00391,-0.0625 -3.25,-0.1875 l 0.0391,-0.75 c 0.87109,-0.34765 1.74219,-0.73437 2.61328,-1.16015 0.62109,-0.30078 1.18359,-0.57422 1.67969,-0.82422 0.0273,-0.0508 0.32422,-0.28906 0.89843,-0.71094 0.29688,-0.22656 0.6211,-0.51172 0.96875,-0.86328 l 1.26954,-0.78516 h 0.82421 c 0.3711,0.94922 0.59766,1.50782 0.67188,1.6836 0.0742,0.17578 0.29687,0.60937 0.67187,1.30859 1.41797,2.07031 2.85157,4.14063 4.29297,6.21094 1.26953,1.84765 1.99219,2.82031 2.16797,2.91797 0.14844,0.25 1.28125,1.60937 3.39844,4.08203 0.84375,0.99609 1.29297,1.57031 1.34375,1.71875 0.29687,0.19922 0.53516,0.375 0.70703,0.52344 0.17578,0.14843 0.375,0.32421 0.59766,0.52343 v -10.53515 l -0.64063,-3.1875 -0.44922,-0.52344 -2.71484,-0.375 c -0.0781,-0.0742 -0.14063,-0.19922 -0.1875,-0.375 0.17187,-0.19922 0.57031,-0.5 1.19141,-0.89844 0.94921,-0.625 1.78125,-1.16406 2.5039,-1.61328 0.25,-0.34766 0.44141,-0.59375 0.57813,-0.73047 0.13672,-0.13672 0.46875,-0.38281 0.98828,-0.73047 0.42578,0 0.79687,0.0508 1.12109,0.14844 l -0.82031,14.62109 c -0.0234,1.04688 -0.0508,2.10938 -0.0742,3.1836 -0.0273,1.07422 -0.0391,2.03906 -0.0391,2.88672 0,0.55078 0.0391,1.16015 0.11328,1.83593 -0.0742,0.27735 -0.11328,0.5 -0.11328,0.67579 0.0273,0.375 0.0508,0.80468 0.0742,1.29296 0.0273,0.48829 0.0391,1.30469 0.0391,2.45704 -0.19922,0.14843 -0.33594,0.24218 -0.41016,0.28125"
     id="path12" />
  <path
     fill-rule="nonzero"
     fill="#231f20"
     fill-opacity="1"
     d="m 154.29687,220.00885 -4.21875,-1.41797 c -0.27344,-0.27734 -0.4414,-0.42968 -0.5039,-0.46875 -0.0625,-0.0352 -0.30469,-0.15625 -0.72657,-0.35546 -0.87109,-1.04297 -1.40234,-1.70313 -1.58984,-1.97657 -0.18359,-0.27734 -0.67578,-1.10937 -1.47266,-2.5039 l -0.74609,-3.28516 v -3.69922 l 1.41797,-3.88281 2.80078,-3.69531 2.08984,-1.75782 0.11328,-0.51953 -5.9375,-0.78515 h -3.32421 l -1.08204,0.33593 -1.38281,1.38282 c -0.25,-0.0781 -0.50781,-0.15235 -0.78515,-0.22657 v -0.70703 l 0.78515,-1.27343 c 0.9961,-0.71875 1.65625,-1.1836 1.98047,-1.39844 0.32422,-0.21094 0.93359,-0.57813 1.82813,-1.10156 0.5,-0.0508 0.83593,-0.0742 1.00781,-0.0742 h 6.76172 c 0.49609,0.17968 1.2539,0.35547 2.27734,0.52734 1.01953,0.16797 3.87109,0.58984 8.55078,1.26563 l 4.74219,-0.15235 1.86719,-0.70312 1.08203,-0.9375 0.89844,0.0351 c -0.0274,0.35157 -0.125,0.75 -0.30079,1.19532 -0.42187,0.32421 -0.71875,0.5625 -0.89453,0.71093 -0.47265,0.44922 -0.94531,0.88282 -1.41797,1.3086 -0.39843,0.14843 -0.78515,0.30859 -1.16015,0.48437 -0.3711,0.17578 -0.7461,0.34766 -1.11719,0.52344 l -2.12891,0.37109 h -4.18359 l -6.27344,-0.59765 -0.11328,0.71093 c -0.29687,0.25 -0.63281,0.53516 -1.00781,0.85938 -0.19922,0.14844 -0.47266,0.26172 -0.82031,0.33594 l -1.3086,2.5 -0.74609,2.65234 -0.14844,2.39063 c 0.0469,0.30078 0.19922,1.07031 0.44531,2.3164 0.25,1.2461 0.39844,2.00391 0.44922,2.27735 0.27344,0.47265 0.52344,0.88281 0.7461,1.23046 0.34765,0.52344 0.53515,0.85938 0.5625,1.01172 h 0.52343 l 0.0352,0.51953 c 0.69531,0.59766 1.25781,1.0586 1.67969,1.38282 0.69922,0.52343 1.05859,0.80859 1.08594,0.85937 0.59375,0.22266 1.20703,0.42188 1.82812,0.59766 1.04688,0.27344 1.65625,0.48437 1.82813,0.63281 h 4.18359 c 0.57422,-0.17187 1.16406,-0.36719 1.77344,-0.57812 0.60937,-0.21094 1.30078,-0.50391 2.07422,-0.875 0.42187,-0.39844 0.70703,-0.69922 0.85937,-0.89844 0.14844,-0.19922 0.27344,-0.38672 0.37109,-0.5586 l 1.19532,-0.5625 c 0,0.22657 0.0508,0.58594 0.14843,1.08594 l -2.57421,2.20313 c -0.92188,0.44531 -2.66407,1.3789 -5.23047,2.80078 -0.42188,0.0469 -0.83203,0.13672 -1.23047,0.26172 -0.39844,0.12109 -0.6836,0.19531 -0.85938,0.22265 z m 0,0"
     id="path13" />
  <path
     fill-rule="nonzero"
     fill="#231f20"
     fill-opacity="1"
     d="m 178.47656,217.69245 c -0.30859,-0.0508 -0.66406,-0.0742 -1.0625,-0.0742 -0.84766,0 -1.77344,0.23437 -2.78125,0.70703 -1.00781,0.46875 -1.625,0.67969 -1.85156,0.62891 0.0273,-0.14844 0.043,-0.34766 0.0586,-0.59766 0.0117,-0.25 0.043,-0.41406 0.0937,-0.48828 0.0469,-0.0703 0.38281,-0.41016 1.00781,-1.00781 0.47266,-0.44922 0.70703,-0.92188 0.70703,-1.42188 v -9.68359 c 0,-0.67188 -0.043,-1.51172 -0.13281,-2.51953 -0.0859,-1.01172 -0.18359,-1.92579 -0.28125,-2.75 -0.10156,-0.39844 -0.20312,-0.69922 -0.30469,-0.89454 -0.17578,-0.40234 -0.35546,-0.63671 -0.53125,-0.71484 -0.57812,-0.22266 -1.35546,-0.37109 -2.32812,-0.44531 -0.97266,-0.0742 -1.48438,-0.13672 -1.53516,-0.1875 v -0.52344 c 1.1211,-0.27344 2.41797,-0.83984 3.90235,-1.70312 1.48047,-0.85938 2.67968,-1.73829 3.60156,-2.63282 h 0.89844 c 0.0742,0.19922 0.10937,0.51953 0.10937,0.96875 -0.14844,1.99219 -0.28515,3.82422 -0.41015,5.48828 -0.125,1.67188 -0.1875,3.125 -0.1875,4.375 0,0.19532 0.0898,2.26172 0.26171,6.19532 0.0508,1.12109 0.0742,2.32812 0.0742,3.62109 0.0781,0.79688 0.25,1.44531 0.52344,1.94141 0.27344,0.5 0.67188,0.91015 1.19531,1.23437 0.10157,0.0742 0.27344,0.21094 0.52344,0.41016 0.14844,0.125 0.22266,0.22265 0.22266,0.30078 0,0.0742 -0.0625,0.12109 -0.1836,0.14844 -0.125,0.0234 -0.26172,0.0117 -0.41406,-0.0391 -0.47266,-0.17187 -0.86328,-0.28515 -1.17578,-0.33593"
     id="path14" />
  <path
     fill-rule="nonzero"
     fill="#231f20"
     fill-opacity="1"
     d="m 6.46484,233.73151 c -0.13672,0.0937 -0.25391,0.14062 -0.34766,0.14062 -0.0937,-0.10546 -0.1875,-0.21484 -0.28515,-0.32812 -0.10156,-0.11719 -0.17969,-0.23047 -0.23828,-0.34766 -0.21875,-0.20703 -0.36328,-0.33593 -0.4336,-0.39062 -0.0703,-0.0508 -0.1914,-0.11719 -0.36718,-0.19922 l 0.67968,-0.27344 0.89063,-0.64062 H 6.625 l 0.625,0.72656 0.66406,0.36328 c -0.0352,0.0586 -0.0703,0.10938 -0.10547,0.15625 -0.0352,0.043 -0.082,0.0898 -0.14062,0.13672 l -0.48829,0.13672 c -0.21875,0.16406 -0.45703,0.33594 -0.71484,0.51953 m 0.22656,3.41406 c 0.41797,0 0.80469,-0.0391 1.15235,-0.12109 0.47656,-0.11719 0.79687,-0.19141 0.95703,-0.22656 l 0.45312,-0.3125 c 0.16407,-0.1875 0.29297,-0.36329 0.38282,-0.53125 0.0937,-0.16797 0.29296,-0.53907 0.59375,-1.10938 0.0937,-0.26562 0.15234,-0.46484 0.18359,-0.58984 0.0273,-0.12891 0.0781,-0.33985 0.14844,-0.62891 v -1.14844 l -0.33203,-1.48437 -0.66016,-1.07813 c -0.15234,-0.15234 -0.30469,-0.3125 -0.45313,-0.48828 -0.22265,-0.24609 -0.35156,-0.39062 -0.38671,-0.4375 l -0.99219,-0.67969 -0.99219,-0.3125 c -0.53516,-0.0937 -0.86328,-0.14453 -0.98437,-0.15625 -0.1211,-0.0117 -0.41016,-0.0195 -0.86329,-0.0195 l -1.15234,0.2461 c -0.0898,0.0586 -0.21484,0.13672 -0.37109,0.23437 -0.16016,0.0977 -0.28516,0.17188 -0.375,0.21875 l -0.96094,1.55078 c -0.082,0.40625 -0.12891,0.64453 -0.14844,0.71485 -0.0156,0.0703 -0.0703,0.19922 -0.16406,0.38281 v 1.30859 l 0.26172,1.04297 c 0.39453,0.73438 0.78906,1.47266 1.18359,2.21485 0.0586,0.0351 0.10547,0.0547 0.14063,0.0625 0.0351,0.004 0.0742,0.0117 0.12109,0.0234 0.15234,0.12891 0.24609,0.21875 0.28125,0.26953 0.0312,0.0547 0.0664,0.13282 0.10156,0.23829 0.11719,0 0.22657,0.0234 0.33203,0.0664 0.28907,0.15235 0.58594,0.30469 0.89063,0.45313 z m -0.42578,1.23828 c -0.13281,0.0117 -0.51172,0.0195 -1.14062,0.0195 H 4.55078 L 2.94531,238.00101 C 2.8164,237.94241 2.6914,237.8721 2.5625,237.79007 c -0.12891,-0.0781 -0.25,-0.15625 -0.36719,-0.22656 L 1.28906,236.67679 C 1.11718,236.4307 0.9375,236.1846 0.75,235.9346 0.5625,235.6846 0.40234,235.45023 0.26172,235.23148 L 0,234.09867 v -2.03907 l 0.17578,-0.97656 c 0.0937,-0.21094 0.22656,-0.47265 0.39844,-0.78515 0.11718,-0.19922 0.19921,-0.3711 0.24609,-0.52344 l 1.44531,-1.48047 c 0.52344,-0.34766 0.91406,-0.59766 1.16797,-0.74609 0.0469,-0.0274 0.36719,-0.19922 0.96094,-0.52735 0.26562,-0.10547 0.53125,-0.20703 0.79297,-0.30469 0.25781,-0.0977 0.54297,-0.16406 0.84375,-0.19921 h 2.19531 c 0.46484,0.17578 0.76562,0.28515 0.89844,0.33984 0.13281,0.0508 0.35547,0.16016 0.67187,0.32031 0.39453,0.31641 0.65625,0.53125 0.79297,0.65625 0.13281,0.1211 0.35938,0.36719 0.6875,0.73828 l 0.67969,0.96094 c 0.0703,0.32422 0.13672,0.64844 0.20703,0.97656 0.0234,0.125 0.0664,0.31641 0.125,0.57422 l 0.0664,1.56641 -0.3125,1.27344 c -0.30079,0.55859 -0.53516,0.96484 -0.69532,1.21875 -0.16406,0.25781 -0.40234,0.59375 -0.71484,1.01171 -0.40625,0.35938 -0.65625,0.57422 -0.74219,0.64454 -0.0859,0.0703 -0.36328,0.26562 -0.82812,0.59375 l -1.88282,0.85156 c -0.47656,0.082 -0.78125,0.1289 -0.91406,0.14062"
     id="path15" />
  <path
     fill-rule="nonzero"
     fill="#231f20"
     fill-opacity="1"
     d="m 17.84765,236.4151 c 0.25391,0.0937 0.72657,0.26563 1.41016,0.52344 h 1.34375 c 0.17187,-0.0469 0.33203,-0.10937 0.47656,-0.18359 0.14453,-0.0742 0.45703,-0.2461 0.9336,-0.51563 0.17578,-0.2539 0.35156,-0.52734 0.53125,-0.8164 0.17968,-0.29297 0.32812,-0.54297 0.44531,-0.75 0.0937,-0.25782 0.16015,-0.46094 0.19922,-0.60938 0.043,-0.15234 0.0859,-0.32812 0.13281,-0.52344 v -1.57031 l -0.41797,-1.375 c -0.15234,-0.23437 -0.28906,-0.45703 -0.41016,-0.67187 -0.125,-0.21485 -0.24218,-0.4336 -0.35937,-0.65235 -0.46484,-0.48828 -0.73828,-0.76953 -0.81641,-0.84765 -0.082,-0.0703 -0.40234,-0.33985 -0.96093,-0.79297 l -0.97657,-0.36328 h -1.00781 l -0.59375,0.24218 -0.52344,0.53907 -0.14062,0.64843 c -0.0586,0.6836 -0.11328,1.3711 -0.16406,2.05469 -0.0508,0.6875 -0.0781,1.72656 -0.0781,3.12109 0,0.64844 0.0273,1.11329 0.0859,1.39063 0.0586,0.28125 0.12109,0.54687 0.1914,0.80469 0.12891,0.10156 0.35938,0.21875 0.69922,0.34765 m -3,1.82813 -0.0508,-0.36328 0.59375,-0.50782 c 0.0781,-0.24218 0.13281,-0.39062 0.15625,-0.4414 0.0234,-0.0547 0.0508,-0.0977 0.0859,-0.13281 v -5.22657 l -0.24219,-1.71093 -0.3164,-0.83594 c -0.13672,0 -0.33594,-0.004 -0.58985,-0.0234 -0.25781,-0.0195 -0.62109,-0.0508 -1.09765,-0.0977 -0.0352,-0.0937 -0.0664,-0.23828 -0.0899,-0.43359 l 0.50781,-0.0547 c 0.0703,-0.0703 0.23047,-0.15625 0.48829,-0.26172 0.13671,-0.0586 0.38281,-0.15625 0.73046,-0.29687 0.60547,-0.50781 1.00391,-0.83594 1.19532,-0.97266 0.1914,-0.14062 0.41797,-0.28125 0.6875,-0.41797 l 1.79297,-0.55859 2.28515,0.12109 c 0.625,0.30079 1.25781,0.60547 1.89844,0.90625 0.34766,0.39454 0.55859,0.63282 0.62891,0.71485 0.17187,0.18359 0.375,0.3789 0.60937,0.57812 l 0.67969,1.04297 0.27734,1.39453 v 2.16016 l -0.6289,1.84766 c -0.20704,0.27734 -0.40235,0.54687 -0.58985,0.80468 -0.18359,0.25 -0.37109,0.47657 -0.55469,0.67578 -0.70703,0.45313 -1.29296,0.8125 -1.75781,1.08204 -0.73047,0.42968 -1.10937,0.65625 -1.1289,0.67968 l -0.99219,0.24219 h -1.53125 c -0.082,-0.0234 -0.16406,-0.0469 -0.2461,-0.0703 -0.0781,-0.0234 -0.16796,-0.0586 -0.25781,-0.10547 h -1.30469 l -0.57421,0.26172 z m 0,0"
     id="path16" />
  <path
     fill-rule="nonzero"
     fill="#231f20"
     fill-opacity="1"
     d="m 34.05468,244.65729 c -0.42968,-0.0703 -0.66406,-0.10547 -0.69921,-0.10547 -0.21875,-0.0351 -0.45313,-0.0781 -0.69532,-0.13672 -0.51172,-0.21093 -0.96093,-0.40625 -1.34375,-0.59375 -0.30078,-0.14062 -0.53515,-0.25 -0.69531,-0.33203 -0.0469,-0.0586 -0.12891,-0.15625 -0.24609,-0.29687 -0.0586,-0.0781 -0.125,-0.1836 -0.20703,-0.3125 l 0.0351,-0.64453 h 0.48828 c 0.10157,0.32421 0.17188,0.52343 0.20703,0.59375 0.0352,0.0703 0.15235,0.2539 0.34766,0.55468 0.12891,0.082 0.30078,0.16016 0.51563,0.23828 0.21484,0.0742 0.8164,0.25782 1.80468,0.54688 l 1.6211,0.0703 1.07812,-0.3125 1.6211,-0.99609 1.16796,-1.21875 0.4375,-1.11328 v -1.96875 l -0.33203,-1.04688 -0.66406,-1.23828 c -0.45312,-0.41797 -0.80469,-0.73047 -1.05469,-0.94141 -0.25,-0.20703 -0.64062,-0.51171 -1.17578,-0.90625 -0.17187,-0.0469 -0.40625,-0.13281 -0.69531,-0.26171 -0.29297,-0.125 -1.21094,-0.55469 -2.75391,-1.28907 -0.40625,-0.3125 -0.64062,-0.49218 -0.69922,-0.53906 -0.0547,-0.0469 -0.22656,-0.23828 -0.5039,-0.57422 l -0.29688,-0.73437 0.0703,-1.21875 0.47265,-0.97657 1.53125,-1.35937 2.125,-0.90625 c 1.14063,0 2.08203,-0.0234 2.82422,-0.0703 0.74219,-0.0469 1.19531,-0.0898 1.35938,-0.13672 l 0.0703,0.16797 -0.85547,1.25781 c -0.0352,0.21484 -0.082,0.50781 -0.14844,0.87891 -0.0625,0.37109 -0.1289,0.72265 -0.19922,1.05078 l -0.26172,0.37109 -0.29687,-0.0352 0.0898,-0.74609 -0.26172,-0.97656 -1.1875,-0.54297 H 34.453 c -0.40625,0.17578 -0.70312,0.32031 -0.88672,0.4375 -0.14062,0.082 -0.28125,0.17578 -0.41797,0.27734 -0.0937,0.16407 -0.14843,0.28516 -0.16796,0.36719 -0.0156,0.082 -0.0352,0.22656 -0.0586,0.4375 0.125,0.3125 0.24219,0.56641 0.34766,0.76563 0.19531,0.38281 0.30078,0.59375 0.3125,0.625 l 0.90625,0.75 3.13672,1.25781 c 0.0469,0.0312 0.33203,0.19531 0.85547,0.48437 0.35937,0.19922 0.64843,0.39063 0.87109,0.57813 0.0352,0.10156 0.0703,0.20703 0.10547,0.3125 l 0.48828,0.15625 c 0.45312,0.66406 0.87109,1.3125 1.25391,1.95312 l 0.0703,2.61328 c -0.0703,0.53516 -0.1211,0.86719 -0.14844,0.99219 -0.0312,0.12891 -0.0625,0.21094 -0.0977,0.2461 -0.0703,0.24218 -0.14062,0.4414 -0.21875,0.58984 -0.0742,0.15234 -0.26953,0.5 -0.58203,1.04687 -0.3125,0.3711 -0.5,0.58594 -0.55859,0.64454 -0.0586,0.0586 -0.25391,0.22265 -0.58984,0.48828 l -0.19532,0.41797 -0.17187,-0.0703 c -0.26953,0.14063 -0.54688,0.29297 -0.83594,0.45313 -0.16406,0.0937 -0.28516,0.19922 -0.36719,0.3164 -0.45312,0.16016 -0.77734,0.26954 -0.97656,0.32813 -0.19531,0.0586 -0.67187,0.16797 -1.42969,0.33203 z m 0,0"
     id="path17" />
  <path
     fill-rule="nonzero"
     fill="#231f20"
     fill-opacity="1"
     d="m 48.29297,239.58698 c -0.33985,-1.08203 -0.5586,-1.77344 -0.66407,-2.08203 -0.10547,-0.3086 -0.24218,-0.66016 -0.41797,-1.05469 -0.0703,-0.0586 -0.17968,-0.28125 -0.33203,-0.66406 -0.14843,-0.38282 -0.22656,-0.65625 -0.22656,-0.81641 h -0.26172 l -0.0508,-0.35156 c -0.76562,-1.14844 -1.26953,-1.89063 -1.50781,-2.21875 -0.23828,-0.33203 -0.65235,-0.8711 -1.2461,-1.61328 -0.61718,-0.65235 -0.9414,-0.99219 -0.97656,-1.02735 -0.21875,-0.22265 -0.48828,-0.46093 -0.80078,-0.71484 -0.46484,-0.1875 -0.75391,-0.29688 -0.87109,-0.33203 -0.11719,-0.0352 -0.32032,-0.0703 -0.60938,-0.10547 l -0.55859,0.14062 0.0156,-0.33203 0.54297,-0.45312 0.83594,-0.33203 0.82031,-0.67969 c 0.26563,0.0586 0.44922,0.10547 0.54688,0.14062 0.0976,0.0352 0.26562,0.10547 0.49609,0.21094 0.28125,0.24219 0.46094,0.39844 0.54297,0.46094 0.0781,0.0625 0.17969,0.11328 0.29297,0.14844 0,0.16015 0.0273,0.24609 0.0781,0.25 0.0547,0.008 0.11328,0.0117 0.1836,0.0117 l 0.0195,0.24218 c 0.38281,0.39453 0.77734,0.8125 1.18359,1.25391 0.2461,0.24609 0.4375,0.40234 0.57422,0.47266 l 0.14063,0.41796 0.47265,0.5586 c 0.0664,0.18359 0.14844,0.35156 0.24219,0.5039 0.16406,0.26954 0.25391,0.42579 0.27734,0.47266 0.082,0.043 0.25,0.29688 0.5,0.75781 0.2461,0.45703 0.48828,0.94922 0.72266,1.47266 0.0469,0.0234 0.17187,0.24609 0.38281,0.66797 0.20703,0.42578 0.35938,0.69531 0.45313,0.8125 h 0.25781 l 0.64844,-0.94141 c 0.3125,-0.63672 0.49609,-1.01953 0.54687,-1.14453 0.0547,-0.12891 0.125,-0.33594 0.21875,-0.62891 0.69922,-1.00781 1.13281,-1.64453 1.3086,-1.91015 0.125,-0.19922 0.20703,-0.35547 0.24218,-0.46875 0.0937,-0.0469 0.3711,-0.3086 0.83594,-0.78516 0.46484,-0.47265 0.76172,-0.7539 0.89063,-0.83203 0.0586,-0.16406 0.0859,-0.32031 0.0859,-0.47266 0,-0.3125 -0.20703,-0.46875 -0.625,-0.46875 -0.0352,0 -0.16797,0.0117 -0.39453,0.0352 -0.22656,0.0195 -0.39844,0.0391 -0.51172,0.0508 -0.3164,0.14063 -0.51953,0.22656 -0.61328,0.25781 -0.0898,0.0273 -0.1914,0.0273 -0.29297,0.004 v -0.41016 c 0.11328,-0.0937 0.29297,-0.20703 0.53907,-0.34765 0.52343,-0.29688 0.82421,-0.48438 0.90625,-0.56641 l 0.60937,-0.15625 c 0.55859,0 1.09375,0.008 1.60156,0.0195 0.51172,0.0117 0.80469,0.0156 0.8711,0.0156 0.17578,0 0.36328,-0.0117 0.55859,-0.0352 l -0.10547,0.41797 c -0.41797,0.375 -0.66797,0.60156 -0.74609,0.67969 -0.082,0.082 -0.14844,0.1875 -0.19141,0.3164 -0.71094,0.57813 -1.25,1.03907 -1.62109,1.375 -0.22266,0.21094 -0.5586,0.52344 -1.01172,0.94141 l -0.75,0.89063 -1.33984,2.24609 c -0.36329,0.82422 -0.60547,1.36328 -0.73438,1.62109 -0.082,0.17578 -0.16406,0.29688 -0.24219,0.36719 l -0.82031,2.19531 c -0.32422,0.67188 -0.51562,1.07813 -0.57422,1.21094 -0.0586,0.13281 -0.0859,0.25391 -0.0859,0.35547 z m 0,0"
     id="path18" />
  <path
     fill-rule="nonzero"
     fill="#231f20"
     fill-opacity="1"
     d="m 58.28515,237.68463 c -0.10937,0.043 -0.4375,0.14063 -0.98437,0.29688 -0.14063,0 -0.24219,-0.0117 -0.3125,-0.0312 l 0.0703,-0.40234 0.78125,-0.82032 c 0.0703,-0.14062 0.21094,-0.36718 0.42188,-0.68359 0.20703,-0.3125 0.39453,-0.60938 0.55468,-0.88672 0.11719,-0.25781 0.28516,-0.57422 0.50782,-0.94531 0.38281,-0.64063 0.70703,-1.19922 0.97265,-1.67188 0.0469,-0.12109 0.125,-0.27734 0.22656,-0.47265 0.10547,-0.19922 0.19532,-0.39844 0.26172,-0.59375 0.0234,-0.0234 0.082,-0.125 0.17578,-0.29688 0.16407,-0.30078 0.26563,-0.47656 0.3125,-0.52344 0.0586,-0.15234 0.17579,-0.3789 0.35157,-0.68359 0.34765,-0.59375 0.66797,-1.16406 0.95703,-1.71094 0.33594,-1 0.58203,-1.75 0.73047,-2.25 0.23437,-0.74609 0.35547,-1.1289 0.36718,-1.15234 0.10547,0 0.19141,0.0156 0.26172,0.0508 0.12891,0.28125 0.21485,0.47656 0.26172,0.59375 0.12891,0.34766 0.19531,0.52734 0.20703,0.53906 0.64063,1.7461 1.1211,3.02735 1.44922,3.85547 0.28906,0.75391 0.67188,1.6875 1.14844,2.78906 0.61719,1.17188 1,1.89454 1.15234,2.16016 0.14844,0.26953 0.39453,0.66797 0.73047,1.20313 l 0.8711,0.87109 c 0.23046,0.0937 0.42187,0.17578 0.5664,0.24609 0.14453,0.0703 0.28125,0.14844 0.41016,0.24219 l -0.0703,0.14063 -3.13672,-0.0703 -0.97657,0.10547 v -0.38281 l 0.27735,-0.0898 c -0.0195,-0.21875 -0.0664,-0.47266 -0.13672,-0.75782 -0.0703,-0.28515 -0.13281,-0.54687 -0.19141,-0.79297 -0.1875,-0.5 -0.42578,-1.08593 -0.71484,-1.75781 -0.19922,-0.46484 -0.40625,-1.0039 -0.62891,-1.62109 -0.0586,-0.0234 -0.22656,-0.36328 -0.5039,-1.01953 -0.28125,-0.65625 -0.4375,-0.99219 -0.47266,-1.00391 -0.0781,-0.16016 -0.27344,-0.55078 -0.57422,-1.16797 -0.0937,-0.19531 -0.15234,-0.35937 -0.17187,-0.48828 l -0.28125,0.10547 c -0.35938,0.74609 -0.63672,1.32422 -0.83594,1.74219 -0.34766,0.78125 -0.5625,1.23437 -0.64453,1.35937 -0.21094,0.51172 -0.45313,1.07813 -0.73047,1.69141 -0.17578,0.38281 -0.26953,0.60937 -0.28125,0.68359 0.53516,-0.12109 0.9375,-0.21484 1.20312,-0.28906 0.26563,-0.0781 0.58204,-0.18359 0.94141,-0.32422 h 0.87109 c 0.0703,0.0352 0.21875,0.11328 0.44532,0.23828 0.22656,0.125 0.48828,0.25 0.79297,0.375 h 0.75 l 0.0351,0.36328 c -0.24609,0.1211 -0.48828,0.22266 -0.72656,0.30078 -0.23828,0.0781 -0.80469,0.25 -1.69922,0.51563 h -0.73047 c -0.23437,-0.17188 -0.46484,-0.33984 -0.69531,-0.50391 -0.16406,-0.11718 -0.33984,-0.21875 -0.52344,-0.3125 h -0.1914 c -0.11719,0 -0.23438,0.004 -0.35157,0.0156 -0.11328,0.0117 -0.21484,0.0195 -0.29297,0.0195 -0.17578,0.26562 -0.32031,0.53906 -0.4375,0.81641 -0.11718,0.28125 -0.26171,0.63281 -0.4375,1.0664 v 0.66016 c 0.14063,0.0937 0.22266,0.15234 0.2461,0.17578 0.0234,0.0234 0.0703,0.0898 0.14062,0.20703 -0.29297,0.0117 -0.55468,0.0273 -0.78515,0.043 -0.23438,0.0195 -0.42969,0.0273 -0.59375,0.0273 -0.11719,0.0977 -0.23047,0.16407 -0.33985,0.20703"
     id="path19" />
  <path
     fill-rule="nonzero"
     fill="#231f20"
     fill-opacity="1"
     d="m 74.20703,239.06354 -1.97266,-0.66016 c -0.125,-0.1289 -0.20312,-0.20312 -0.23437,-0.21875 -0.0273,-0.0156 -0.14063,-0.0742 -0.33985,-0.16796 -0.40625,-0.48829 -0.65234,-0.79297 -0.73828,-0.92188 -0.0898,-0.12891 -0.3164,-0.51562 -0.6914,-1.16797 l -0.34766,-1.53515 v -1.72266 l 0.66406,-1.8125 1.30469,-1.72656 0.97656,-0.82032 0.0547,-0.24218 -2.77344,-0.36719 H 68.5586 l -0.50391,0.15625 -0.64453,0.64453 c -0.11718,-0.0312 -0.23828,-0.0664 -0.36718,-0.10156 v -0.33203 l 0.36718,-0.59375 c 0.46485,-0.33594 0.77344,-0.55469 0.92188,-0.65235 0.15234,-0.0977 0.4375,-0.26953 0.85547,-0.51562 0.23047,-0.0234 0.38672,-0.0352 0.46875,-0.0352 h 3.15625 c 0.23047,0.0859 0.58593,0.16797 1.0625,0.2461 0.47656,0.082 1.80468,0.27734 3.98828,0.59375 l 2.21484,-0.0703 0.8711,-0.32812 0.50781,-0.44141 0.41797,0.0195 c -0.0117,0.16407 -0.0586,0.34766 -0.14063,0.5586 -0.19922,0.14843 -0.33594,0.26172 -0.41797,0.32812 -0.22265,0.21094 -0.4414,0.41406 -0.66406,0.61328 -0.18359,0.0664 -0.36328,0.14453 -0.53906,0.22657 -0.17578,0.0781 -0.34766,0.16015 -0.52344,0.24218 l -0.99219,0.17578 h -1.95312 l -2.92578,-0.28125 -0.0547,0.33204 c -0.13672,0.11718 -0.29688,0.25 -0.46875,0.40234 -0.0937,0.0664 -0.22266,0.12109 -0.38281,0.15625 l -0.60938,1.16797 -0.35156,1.23437 -0.0703,1.11719 c 0.0234,0.14063 0.0937,0.5 0.21093,1.08203 0.11719,0.57813 0.1875,0.9336 0.21094,1.0625 0.125,0.21875 0.24219,0.41016 0.34766,0.57422 0.16015,0.24219 0.25,0.40234 0.26172,0.46875 h 0.24218 l 0.0195,0.24609 c 0.32421,0.27735 0.58593,0.49219 0.78125,0.64454 0.32812,0.24218 0.49609,0.3789 0.50781,0.40234 0.27734,0.10156 0.5625,0.19531 0.85156,0.27734 0.48828,0.12891 0.77344,0.22657 0.85547,0.29688 h 1.95312 c 0.26563,-0.082 0.54297,-0.17188 0.82813,-0.26953 0.28125,-0.10157 0.60547,-0.23828 0.96484,-0.41016 0.19922,-0.1875 0.33203,-0.32812 0.40235,-0.41797 0.0703,-0.0937 0.125,-0.17969 0.17187,-0.26172 l 0.5586,-0.26172 c 0,0.10547 0.0234,0.27344 0.0703,0.50391 l -1.20313,1.02734 c -0.42968,0.21094 -1.24218,0.64844 -2.4375,1.3086 -0.19922,0.0234 -0.39062,0.0625 -0.57812,0.125 -0.1836,0.0547 -0.31641,0.0898 -0.39844,0.10156 z m 0,0"
     id="path20" />
  <path
     fill-rule="nonzero"
     fill="#231f20"
     fill-opacity="1"
     d="m 87.17187,238.88776 c -0.46484,0 -0.91015,-0.043 -1.33203,-0.13672 -0.42578,-0.0937 -0.84766,-0.22656 -1.26562,-0.40234 -0.25391,-0.0937 -0.5,-0.23438 -0.73047,-0.42578 -0.23438,-0.19141 -0.5586,-0.55079 -0.97657,-1.07422 -0.45312,-0.55469 -0.75,-1.125 -0.89062,-1.70703 -0.0898,-0.38282 -0.13672,-1.00391 -0.13672,-1.86329 v -1.04687 c 0,-0.21875 0.0781,-0.52344 0.24219,-0.90234 0.0469,-0.11719 0.28906,-0.58985 0.73437,-1.41407 0.24219,-0.40625 0.75782,-0.90234 1.53907,-1.49218 0.78515,-0.58594 1.40234,-0.94922 1.85546,-1.08594 0.45313,-0.14063 0.9375,-0.29688 1.45704,-0.47266 0.51562,-0.17187 1.01171,-0.26172 1.48828,-0.26172 0.33984,0 0.72656,0.0273 1.16015,0.0781 0.4375,0.0547 0.69922,0.0781 0.79297,0.0781 0.0117,0 0.0586,-0.0234 0.14063,-0.0781 0.082,-0.0508 0.14843,-0.0781 0.20703,-0.0781 0.082,0 0.16406,0.0664 0.24609,0.19141 -0.0234,0.0352 -0.17969,0.19531 -0.47265,0.47656 -0.1836,0.1836 -0.28907,0.33203 -0.3125,0.4375 -0.082,0.23047 -0.16407,0.46485 -0.24219,0.69922 -0.11719,0.33984 -0.17578,0.60156 -0.17578,0.78906 -0.0234,0.17578 -0.043,0.32813 -0.0625,0.46485 -0.0156,0.13281 -0.0234,0.25781 -0.0234,0.375 l -0.40234,0.22656 v -1.14844 c 0,-0.0469 -0.043,-0.13281 -0.12891,-0.2539 -0.0898,-0.1211 -0.15625,-0.19532 -0.20313,-0.21875 -0.19531,-0.16016 -0.34765,-0.27735 -0.45312,-0.34766 -0.20703,-0.14063 -0.36328,-0.21094 -0.46875,-0.21094 l -1.70703,-0.0469 c -0.32813,0 -0.63672,0.0469 -0.9336,0.15234 -0.29687,0.10547 -0.59765,0.21094 -0.89843,0.3125 -0.082,0.0234 -0.21094,0.125 -0.39063,0.30859 -0.17969,0.17969 -0.30078,0.32813 -0.35937,0.44141 -0.3711,0.72266 -0.59766,1.1875 -0.67969,1.39453 -0.23047,0.57031 -0.34766,1.07031 -0.34766,1.5 0,0.0352 0.0469,0.0977 0.14063,0.19141 0.0469,0.0469 0.1289,0.12109 0.24219,0.22656 0.53515,0 1.34375,-0.0234 2.42187,-0.0703 1.08203,-0.0469 1.85938,-0.0703 2.33594,-0.0703 0.52344,0 1.01172,-0.0859 1.46484,-0.26172 0.5586,-0.20703 0.88281,-0.32422 0.97656,-0.34766 -0.0352,0.0937 -0.1875,0.44922 -0.45312,1.0625 -0.082,0.1875 -0.13281,0.35156 -0.15625,0.48828 -0.0469,0.14063 -0.082,0.23828 -0.10547,0.29688 -0.082,0.19922 -0.14062,0.29687 -0.17578,0.29687 -0.0703,0 -0.17969,-0.0859 -0.32813,-0.26172 -0.0469,-0.0469 -0.10546,-0.1289 -0.17578,-0.24218 -0.0352,-0.0117 -0.26953,-0.0781 -0.69922,-0.19532 -0.42968,-0.11328 -1.01562,-0.17187 -1.75781,-0.17187 l -3.5039,0.0352 c 0.11718,0.39454 0.22265,0.72657 0.32421,0.99219 0.0977,0.26563 0.22266,0.56641 0.375,0.89844 0.14844,0.33203 0.42579,0.6875 0.82422,1.07031 0.40235,0.38281 0.76953,0.64063 1.10938,0.76563 0.3125,0.15234 0.63281,0.3125 0.95703,0.47265 0.25781,0.11719 0.55078,0.17578 0.89062,0.17578 1.08985,0 1.81641,-0.0664 2.17579,-0.19531 0.0586,-0.0117 0.10546,-0.0312 0.14062,-0.0664 0.34766,0 0.65234,-0.0742 0.90625,-0.22657 0.0117,-0.0117 0.17578,-0.11718 0.48438,-0.3164 l 0.47265,-0.0859 0.125,0.14062 c -0.46484,0.39454 -0.71094,0.59766 -0.73437,0.60938 -0.23047,0.16016 -0.51953,0.32812 -0.86328,0.49609 -0.33985,0.16797 -0.69141,0.35157 -1.05079,0.55078 -0.46484,0.23047 -0.85156,0.375 -1.15234,0.4336 z m 0,0"
     id="path21" />
  <path
     fill-rule="nonzero"
     fill="#231f20"
     fill-opacity="1"
     d="m 100.34375,240.92292 c -0.125,0 -0.23828,-0.0352 -0.33985,-0.10157 -0.0977,-0.0703 -0.14453,-0.17187 -0.14453,-0.29687 -0.0234,-0.1875 -0.043,-0.35938 -0.0547,-0.52344 -0.0117,-0.16406 -0.0156,-0.30078 -0.0156,-0.41797 0,-0.16406 0.0195,-0.3125 0.0586,-0.44531 0.043,-0.13281 0.14453,-0.39063 0.30469,-0.77344 0.12891,-0.28125 0.25,-0.54297 0.36719,-0.78515 0.21094,-0.32422 0.41797,-0.64454 0.6289,-0.95704 0.26563,-0.42968 0.39844,-0.78906 0.39844,-1.08203 0,-0.17187 0.0352,-0.66797 0.10547,-1.48047 0.0234,-0.26562 0.0352,-0.64453 0.0352,-1.13281 0,-0.30078 -0.0703,-0.67969 -0.21094,-1.13281 -0.0781,-0.26563 -0.19531,-0.58984 -0.34766,-0.97266 -0.11718,-0.33984 -0.375,-0.71484 -0.78515,-1.13281 -0.45313,-0.45312 -0.82422,-0.69922 -1.11328,-0.74219 -0.28907,-0.0391 -0.48829,-0.0664 -0.59375,-0.0781 -0.10547,-0.0117 -0.25391,-0.0156 -0.45313,-0.0156 -0.5,0 -0.95312,0.0937 -1.35937,0.28516 -0.40625,0.19141 -0.78907,0.52734 -1.14844,1.00391 -0.17578,0.33593 -0.26172,0.75 -0.26172,1.23828 0,0.47656 -0.0195,1.21875 -0.0508,2.23047 -0.0352,1.00781 -0.0547,1.76562 -0.0547,2.26562 0,0.17188 0.043,0.44141 0.12109,0.80078 0.082,0.35938 0.125,0.58594 0.125,0.67969 0,0.082 0.0742,0.17578 0.22657,0.28516 0.14843,0.11328 0.23047,0.17187 0.24218,0.18359 v 0.31641 c -0.082,0 -0.26562,-0.0312 -0.55859,-0.0899 -0.28906,-0.0586 -0.52344,-0.0859 -0.69531,-0.0859 -0.12891,0 -0.28125,0.0156 -0.45313,0.0508 -0.21093,0.0937 -0.41015,0.1875 -0.60156,0.28125 -0.19141,0.0937 -0.33984,0.13671 -0.44531,0.13671 -0.10547,0 -0.17188,-0.0312 -0.20703,-0.10156 -0.0234,-0.0586 0.0391,-0.17187 0.1914,-0.33984 0.14844,-0.16797 0.24219,-0.30469 0.27735,-0.41016 l 0.29687,-1.0625 c 0.17578,-0.38281 0.29297,-0.84765 0.35547,-1.39453 0.0664,-0.54687 0.0977,-1.22656 0.0977,-2.03906 0,-0.69922 -0.0352,-1.67188 -0.10547,-2.92969 -0.0703,-1.25391 -0.10547,-2.07812 -0.10547,-2.47266 0,-0.17578 -0.0234,-0.38671 -0.0781,-0.63671 -0.0508,-0.25 -0.10546,-0.50391 -0.16406,-0.75782 -0.0117,-0.0937 -0.0742,-0.17968 -0.1914,-0.26172 -0.11719,-0.082 -0.25,-0.12109 -0.40235,-0.12109 -0.0937,0 -0.28906,0.0234 -0.58984,0.0703 -0.0703,0.0117 -0.17188,0.0156 -0.29688,0.0156 -0.15234,0 -0.25,-0.0625 -0.29687,-0.19141 -0.0117,-0.0234 -0.0156,-0.0625 -0.008,-0.11328 0.004,-0.0508 0.008,-0.10156 0.008,-0.14844 0.23047,-0.16406 0.55078,-0.37109 0.95703,-0.6289 0.45312,-0.28907 0.80859,-0.5 1.0625,-0.62891 0.12891,-0.12891 0.25781,-0.26172 0.38672,-0.40234 0.21875,-0.23047 0.38672,-0.35547 0.5039,-0.36719 0.10547,-0.0312 0.1836,-0.0547 0.24219,-0.0664 0.17578,-0.0469 0.31641,-0.0703 0.41797,-0.0703 0.0234,0.0703 0.0469,0.13281 0.0703,0.19141 0.0234,0.0586 0.0352,0.0977 0.0352,0.12109 0,0.87109 -0.0273,2.14453 -0.0859,3.82031 -0.0117,0.33594 -0.0195,0.94922 -0.0195,1.83203 0.082,-0.17578 0.18359,-0.35156 0.29688,-0.52343 0.17578,-0.26953 0.29687,-0.42578 0.36718,-0.47266 0.38282,-0.23047 0.76563,-0.46875 1.14844,-0.71484 0.47656,-0.27735 0.96484,-0.41797 1.46484,-0.41797 0.25782,0 0.64063,0.0742 1.16016,0.21875 0.51563,0.14453 0.89844,0.26953 1.14063,0.375 0.28906,0.16406 0.5664,0.40234 0.82812,0.71484 0.26172,0.3125 0.50781,0.69141 0.74219,1.13281 0.19531,0.3711 0.33203,0.76563 0.40625,1.1836 0.0781,0.41797 0.11328,0.84765 0.11328,1.28906 0,0.23438 -0.0117,0.48047 -0.0312,0.75 -0.0234,0.26563 -0.0547,0.55859 -0.0898,0.87109 -0.0703,0.52344 -0.19141,0.96875 -0.36329,1.33985 -0.0937,0.19922 -0.23828,0.3789 -0.4375,0.53906 -0.0234,0.0469 -0.4375,0.625 -1.23828,1.72656 -0.54687,0.75391 -0.83984,1.375 -0.88672,1.86328 v 0.83594 c 0,0.11719 0.0742,0.21094 0.22657,0.28125 0.0703,0.0352 0.14453,0.0742 0.22656,0.1211 0.0117,0.0586 0.004,0.12109 -0.0195,0.1914 -0.0234,0.0703 -0.0391,0.13281 -0.0508,0.19141 -0.0586,0.0586 -0.15235,0.0859 -0.28125,0.0859"
     id="path22" />
  <path
     fill-rule="nonzero"
     fill="#231f20"
     fill-opacity="1"
     d="m 110.73047,233.73151 c -0.13672,0.0937 -0.25391,0.14062 -0.34766,0.14062 -0.0937,-0.10546 -0.1875,-0.21484 -0.28516,-0.32812 -0.10156,-0.11719 -0.17968,-0.23047 -0.23828,-0.34766 -0.21875,-0.20703 -0.36328,-0.33593 -0.43359,-0.39062 -0.0703,-0.0508 -0.19141,-0.11719 -0.36719,-0.19922 l 0.67969,-0.27344 0.89062,-0.64062 h 0.26172 l 0.625,0.72656 0.66406,0.36328 c -0.0352,0.0586 -0.0703,0.10938 -0.10546,0.15625 -0.0352,0.043 -0.082,0.0898 -0.14063,0.13672 l -0.48828,0.13672 c -0.21875,0.16406 -0.45703,0.33594 -0.71484,0.51953 m 0.22656,3.41406 c 0.41797,0 0.80469,-0.0391 1.15234,-0.12109 0.47656,-0.11719 0.79688,-0.19141 0.95703,-0.22656 l 0.45313,-0.3125 c 0.16406,-0.1875 0.29297,-0.36329 0.38281,-0.53125 0.0937,-0.16797 0.29297,-0.53907 0.59375,-1.10938 0.0937,-0.26562 0.15234,-0.46484 0.18359,-0.58984 0.0273,-0.12891 0.0781,-0.33985 0.14844,-0.62891 v -1.14844 l -0.33203,-1.48437 -0.66016,-1.07813 c -0.15234,-0.15234 -0.30468,-0.3125 -0.45312,-0.48828 -0.22266,-0.24609 -0.35156,-0.39062 -0.38672,-0.4375 l -0.99219,-0.67969 -0.99218,-0.3125 c -0.53516,-0.0937 -0.86329,-0.14453 -0.98438,-0.15625 -0.12109,-0.0117 -0.41016,-0.0195 -0.86328,-0.0195 l -1.15234,0.2461 c -0.0899,0.0586 -0.21485,0.13672 -0.3711,0.23437 -0.16015,0.0977 -0.28515,0.17188 -0.375,0.21875 l -0.96094,1.55078 c -0.082,0.40625 -0.1289,0.64453 -0.14843,0.71485 -0.0156,0.0703 -0.0703,0.19922 -0.16407,0.38281 v 1.30859 l 0.26172,1.04297 c 0.39453,0.73438 0.78907,1.47266 1.1836,2.21485 0.0586,0.0351 0.10547,0.0547 0.14062,0.0625 0.0352,0.004 0.0742,0.0117 0.1211,0.0234 0.15234,0.12891 0.24609,0.21875 0.28125,0.26953 0.0312,0.0547 0.0664,0.13282 0.10156,0.23829 0.11719,0 0.22656,0.0234 0.33203,0.0664 0.28906,0.15235 0.58594,0.30469 0.89062,0.45313 z m -0.42578,1.23828 c -0.13282,0.0117 -0.51172,0.0195 -1.14063,0.0195 h -0.57422 l -1.60547,-0.40234 c -0.1289,-0.0586 -0.2539,-0.12891 -0.38281,-0.21094 -0.1289,-0.0781 -0.25,-0.15625 -0.36719,-0.22656 l -0.90625,-0.88672 c -0.17187,-0.24609 -0.35156,-0.49219 -0.53906,-0.74219 -0.1875,-0.25 -0.34765,-0.48437 -0.48828,-0.70312 l -0.26172,-1.13281 v -2.03907 l 0.17578,-0.97656 c 0.0937,-0.21094 0.22657,-0.47265 0.39844,-0.78515 0.11719,-0.19922 0.19922,-0.3711 0.24609,-0.52344 l 1.44532,-1.48047 c 0.52343,-0.34766 0.91406,-0.59766 1.16797,-0.74609 0.0469,-0.0274 0.36718,-0.19922 0.96093,-0.52735 0.26563,-0.10547 0.53125,-0.20703 0.79297,-0.30469 0.25781,-0.0977 0.54297,-0.16406 0.84375,-0.19921 h 2.19531 c 0.46485,0.17578 0.76563,0.28515 0.89844,0.33984 0.13281,0.0508 0.35547,0.16016 0.67188,0.32031 0.39453,0.31641 0.65625,0.53125 0.79297,0.65625 0.13281,0.1211 0.35937,0.36719 0.6875,0.73828 l 0.67968,0.96094 c 0.0703,0.32422 0.13672,0.64844 0.20703,0.97656 0.0234,0.125 0.0664,0.31641 0.125,0.57422 l 0.0664,1.56641 -0.3125,1.27344 c -0.30078,0.55859 -0.53516,0.96484 -0.69531,1.21875 -0.16406,0.25781 -0.40235,0.59375 -0.71485,1.01171 -0.40625,0.35938 -0.65625,0.57422 -0.74218,0.64454 -0.0859,0.0703 -0.36328,0.26562 -0.82813,0.59375 l -1.88281,0.85156 c -0.47656,0.082 -0.78125,0.1289 -0.91406,0.14062"
     id="path23" />
  <path
     fill-rule="nonzero"
     fill="#231f20"
     fill-opacity="1"
     d="m 125.71875,232.57917 c 0.67578,-0.25391 1.33593,-0.48438 1.98828,-0.69532 0.2539,-0.21875 0.54297,-0.45312 0.87109,-0.69531 0.21875,-0.19922 0.4336,-0.49609 0.64453,-0.89062 0.0703,-0.12891 0.10547,-0.41407 0.10547,-0.85547 0,-0.45313 -0.0351,-0.76563 -0.10547,-0.94141 -0.1289,-0.3125 -0.39062,-0.54297 -0.78515,-0.69531 -0.0937,-0.0352 -0.44532,-0.1211 -1.0625,-0.26172 -0.32422,0.0352 -0.5625,0.0703 -0.70703,0.10547 -0.14454,0.0352 -0.31641,0.11719 -0.51172,0.24609 -0.0703,0.10156 -0.11328,0.16406 -0.125,0.1875 -0.0586,0.082 -0.0977,0.13672 -0.1211,0.16016 z m 9.02734,10.51171 -0.92187,-0.26171 -1.37891,-1.35938 c -1.08984,-1.37109 -1.67188,-2.09766 -1.74219,-2.17969 -0.61719,-0.78906 -1.125,-1.5 -1.53515,-2.125 -0.48438,-0.74609 -0.91797,-1.5039 -1.28907,-2.28515 -0.082,-0.0586 -0.14062,-0.125 -0.18359,-0.19922 -0.0391,-0.0742 -0.22656,-0.48047 -0.56641,-1.21094 l -0.0859,-0.41797 -0.57422,-0.10547 c -0.19922,0.15235 -0.32422,0.2461 -0.38282,0.28907 -0.0586,0.0391 -0.17968,0.0937 -0.36718,0.16406 l 0.14062,2.21484 0.29688,1.86328 c 0.11328,0.1875 0.19922,0.3125 0.25,0.375 0.0547,0.0625 0.13672,0.13672 0.2539,0.21875 l -0.0156,0.19141 h -1.72656 c -0.14063,0.0586 -0.28516,0.12891 -0.4375,0.20703 -0.14844,0.082 -0.30079,0.14844 -0.45313,0.19141 h -0.32812 l -0.17579,-0.25782 c 0.1875,-0.1875 0.31641,-0.32031 0.38282,-0.40234 0.0664,-0.082 0.17187,-0.25781 0.3125,-0.52344 l 0.24609,-0.97656 c 0,-1.10156 -0.0312,-2.10937 -0.0859,-3.01562 -0.10547,-1.625 -0.16015,-2.62891 -0.16015,-3.01172 -0.17188,-0.59375 -0.28516,-0.96094 -0.33985,-1.10938 -0.0508,-0.14453 -0.11328,-0.26172 -0.17968,-0.35547 -0.28125,-0.0234 -0.55469,-0.0469 -0.82813,-0.0703 -0.27344,-0.0234 -0.55078,-0.0586 -0.82812,-0.10547 v -0.26172 l 2.17578,-1.11328 c 0.21875,-0.21094 0.39453,-0.36328 0.53125,-0.46094 0.13672,-0.10156 0.30468,-0.21875 0.49609,-0.35937 l 0.66406,-0.0859 c 0,0.0234 0.0156,0.10547 0.0508,0.25 0.0352,0.14844 0.0625,0.27344 0.0859,0.375 l 0.35156,0.0352 c 0.19922,-0.16016 0.34375,-0.27344 0.4375,-0.32813 0.0898,-0.0586 0.29297,-0.17187 0.60938,-0.33203 0.3125,-0.082 0.52344,-0.1289 0.63672,-0.14062 0.10937,-0.0117 0.33984,-0.0156 0.6875,-0.0156 0.18359,0 0.50781,0.0859 0.96484,0.26172 0.46094,0.17188 0.71094,0.30469 0.75,0.39844 0.043,0.0937 0.125,0.23828 0.25391,0.4375 0.1875,0.33594 0.27734,0.61328 0.27734,0.83594 0,0.42968 -0.0742,0.84375 -0.22656,1.23828 -0.17188,0.38281 -0.34766,0.75781 -0.51953,1.13281 l -0.64844,0.74609 -0.85156,0.47266 c 0.69531,2.125 1.65625,4.02344 2.875,5.69922 1.42969,1.96094 3.01562,3.29687 4.75781,4.00781 l 1.04688,-0.10547 -0.125,0.3125 c -0.97266,0.5 -1.53516,0.79297 -1.67969,0.8711 -0.14453,0.082 -0.28125,0.1914 -0.41016,0.3164 z m 0,0"
     id="path24" />
  <path
     fill-rule="nonzero"
     fill="#231f20"
     fill-opacity="1"
     d="m 138.17968,233.73151 c -0.14062,0.0937 -0.25781,0.14062 -0.34765,0.14062 -0.0937,-0.10546 -0.19141,-0.21484 -0.28906,-0.32812 -0.0977,-0.11719 -0.17579,-0.23047 -0.23438,-0.34766 -0.22266,-0.20703 -0.36719,-0.33593 -0.4375,-0.39062 -0.0703,-0.0508 -0.19141,-0.11719 -0.36328,-0.19922 l 0.67969,-0.27344 0.88672,-0.64062 h 0.26171 l 0.62891,0.72656 0.66016,0.36328 c -0.0352,0.0586 -0.0703,0.10938 -0.10547,0.15625 -0.0312,0.043 -0.0781,0.0898 -0.13672,0.13672 l -0.48828,0.13672 c -0.22266,0.16406 -0.46094,0.33594 -0.71485,0.51953 m 0.22657,3.41406 c 0.41797,0 0.80078,-0.0391 1.14843,-0.12109 0.47657,-0.11719 0.79688,-0.19141 0.96094,-0.22656 l 0.45313,-0.3125 c 0.16015,-0.1875 0.28906,-0.36329 0.38281,-0.53125 0.0937,-0.16797 0.28906,-0.53907 0.59375,-1.10938 0.0898,-0.26562 0.15234,-0.46484 0.17969,-0.58984 0.0312,-0.12891 0.0781,-0.33985 0.14843,-0.62891 v -1.14844 l -0.32812,-1.48437 -0.66406,-1.07813 c -0.15235,-0.15234 -0.30078,-0.3125 -0.45313,-0.48828 -0.21875,-0.24609 -0.34765,-0.39062 -0.38281,-0.4375 l -0.99219,-0.67969 -0.99609,-0.3125 c -0.53516,-0.0937 -0.86328,-0.14453 -0.98438,-0.15625 -0.12109,-0.0117 -0.41015,-0.0195 -0.86328,-0.0195 l -1.14844,0.2461 c -0.0937,0.0586 -0.21875,0.13672 -0.375,0.23437 -0.15625,0.0977 -0.28125,0.17188 -0.375,0.21875 l -0.95703,1.55078 c -0.082,0.40625 -0.13281,0.64453 -0.14843,0.71485 -0.0195,0.0703 -0.0742,0.19922 -0.16797,0.38281 v 1.30859 l 0.26172,1.04297 c 0.39453,0.73438 0.79296,1.47266 1.1875,2.21485 0.0586,0.0351 0.10156,0.0547 0.13671,0.0625 0.0352,0.004 0.0781,0.0117 0.125,0.0234 0.14844,0.12891 0.24219,0.21875 0.27735,0.26953 0.0352,0.0547 0.0703,0.13282 0.10547,0.23829 0.11328,0 0.22656,0.0234 0.33203,0.0664 0.28906,0.15235 0.58594,0.30469 0.88672,0.45313 z m -0.42578,1.23828 c -0.13672,0.0117 -0.51563,0.0195 -1.14454,0.0195 h -0.57421 l -1.60157,-0.40234 c -0.1289,-0.0586 -0.25781,-0.12891 -0.38281,-0.21094 -0.12891,-0.0781 -0.25,-0.15625 -0.36719,-0.22656 l -0.90625,-0.88672 c -0.17578,-0.24609 -0.35547,-0.49219 -0.53906,-0.74219 -0.1875,-0.25 -0.35156,-0.48437 -0.48828,-0.70312 l -0.26172,-1.13281 v -2.03907 l 0.17188,-0.97656 c 0.0937,-0.21094 0.22656,-0.47265 0.40234,-0.78515 0.11719,-0.19922 0.19922,-0.3711 0.24219,-0.52344 l 1.44922,-1.48047 c 0.52343,-0.34766 0.91015,-0.59766 1.16796,-0.74609 0.043,-0.0274 0.36329,-0.19922 0.95704,-0.52735 0.26562,-0.10547 0.53125,-0.20703 0.79296,-0.30469 0.26172,-0.0977 0.54297,-0.16406 0.84375,-0.19921 h 2.19922 c 0.46094,0.17578 0.76172,0.28515 0.89453,0.33984 0.13282,0.0508 0.35938,0.16016 0.67188,0.32031 0.39453,0.31641 0.66016,0.53125 0.79297,0.65625 0.13281,0.1211 0.36328,0.36719 0.6875,0.73828 l 0.67969,0.96094 c 0.0703,0.32422 0.14062,0.64844 0.21093,0.97656 0.0234,0.125 0.0625,0.31641 0.1211,0.57422 l 0.0703,1.56641 -0.3125,1.27344 c -0.30469,0.55859 -0.53516,0.96484 -0.69922,1.21875 -0.16406,0.25781 -0.40234,0.59375 -0.71484,1.01171 -0.40625,0.35938 -0.65235,0.57422 -0.73828,0.64454 -0.0899,0.0703 -0.36329,0.26562 -0.82813,0.59375 l -1.88281,0.85156 c -0.47656,0.082 -0.78125,0.1289 -0.91406,0.14062"
     id="path25" />
  <path
     fill-rule="nonzero"
     fill="#231f20"
     fill-opacity="1"
     d="m 150.44922,238.6612 c -0.3711,0 -0.79297,-0.0508 -1.26563,-0.15625 -0.46875,-0.10157 -1.01172,-0.25391 -1.62891,-0.45313 -0.18359,-0.0469 -0.52343,-0.30859 -1.01171,-0.78125 -0.53125,-0.52344 -0.89844,-0.98437 -1.09766,-1.3789 -0.14844,-0.3125 -0.26953,-0.73438 -0.35547,-1.26172 -0.0859,-0.52735 -0.13281,-1.27735 -0.13281,-2.24219 0,-0.56641 0.19531,-1.20703 0.57812,-1.91406 0.38282,-0.71094 0.79297,-1.25 1.23438,-1.6211 0.19922,-0.16406 0.5,-0.42968 0.90625,-0.80468 0.38672,-0.30079 0.88281,-0.59375 1.5,-0.87891 0.61719,-0.28516 1.17187,-0.46875 1.67187,-0.54688 0.5,-0.082 1.1211,-0.125 1.86719,-0.125 h 1.55078 c 0.0117,0 0.10938,-0.0352 0.29688,-0.10546 h 0.1914 c -0.23437,0.37109 -0.46093,0.74218 -0.67968,1.10937 -0.22266,0.36719 -0.35157,0.71484 -0.39454,1.04688 -0.0391,0.32812 -0.0703,0.60156 -0.0937,0.8164 -0.0234,0.21485 -0.0352,0.39844 -0.0352,0.55078 0,0.15235 -0.0859,0.22657 -0.26172,0.22657 -0.15234,0 -0.22656,-0.0742 -0.22656,-0.22657 0,-0.0234 0.0156,-0.16797 0.043,-0.42578 0.0312,-0.26172 0.043,-0.44531 0.043,-0.55078 0,-0.24219 -0.16796,-0.49219 -0.5039,-0.75 -0.33594,-0.25391 -0.64063,-0.38281 -0.90625,-0.38281 -0.64063,0 -1.17969,0.0273 -1.6211,0.0859 -0.4414,0.0586 -0.96875,0.16796 -1.58593,0.33203 -0.32422,0.10547 -0.71875,0.53515 -1.17578,1.28906 -0.46094,0.75781 -0.6875,1.38281 -0.6875,1.88281 0,0.5 0.043,0.98047 0.1289,1.4375 0.0899,0.46094 0.21094,0.875 0.36719,1.2461 0.16016,0.37109 0.47266,0.84375 0.9375,1.41015 0.42187,0.51172 0.71484,0.81641 0.87891,0.90625 0.82812,0.39844 1.45703,0.63672 1.88281,0.71485 0.42578,0.082 1.16015,0.125 2.19922,0.125 0.72265,-0.19922 1.39062,-0.47266 2.00781,-0.82032 0.10547,0 0.19141,-0.004 0.26953,-0.008 0.0742,-0.008 0.10938,0 0.10938,0.0234 0,0.0469 -0.0234,0.13672 -0.0703,0.26172 l -2.08984,1.35937 c -1.21875,0.40625 -2.16797,0.60938 -2.83984,0.60938"
     id="path26" />
  <path
     fill-rule="nonzero"
     fill="#231f20"
     fill-opacity="1"
     d="m 163.86718,240.92292 c -0.1289,0 -0.24218,-0.0352 -0.33984,-0.10157 -0.0977,-0.0703 -0.14844,-0.17187 -0.14844,-0.29687 -0.0234,-0.1875 -0.0391,-0.35938 -0.0508,-0.52344 -0.0117,-0.16406 -0.0195,-0.30078 -0.0195,-0.41797 0,-0.16406 0.0195,-0.3125 0.0625,-0.44531 0.0391,-0.13281 0.14063,-0.39063 0.30469,-0.77344 0.1289,-0.28125 0.25,-0.54297 0.36719,-0.78515 0.20703,-0.32422 0.41796,-0.64454 0.625,-0.95704 0.26953,-0.42968 0.40234,-0.78906 0.40234,-1.08203 0,-0.17187 0.0352,-0.66797 0.10547,-1.48047 0.0195,-0.26562 0.0312,-0.64453 0.0312,-1.13281 0,-0.30078 -0.0664,-0.67969 -0.20703,-1.13281 -0.082,-0.26563 -0.19922,-0.58984 -0.34766,-0.97266 -0.11719,-0.33984 -0.37891,-0.71484 -0.78516,-1.13281 -0.45312,-0.45312 -0.82421,-0.69922 -1.11718,-0.74219 -0.28907,-0.0391 -0.48438,-0.0664 -0.58985,-0.0781 -0.10547,-0.0117 -0.25781,-0.0156 -0.45312,-0.0156 -0.5,0 -0.95313,0.0937 -1.35938,0.28516 -0.40625,0.19141 -0.79297,0.52734 -1.15234,1.00391 -0.17188,0.33593 -0.26172,0.75 -0.26172,1.23828 0,0.47656 -0.0156,1.21875 -0.0508,2.23047 -0.0352,1.00781 -0.0508,1.76562 -0.0508,2.26562 0,0.17188 0.0391,0.44141 0.12109,0.80078 0.082,0.35938 0.1211,0.58594 0.1211,0.67969 0,0.082 0.0742,0.17578 0.22656,0.28516 0.15234,0.11328 0.23437,0.17187 0.24609,0.18359 v 0.31641 c -0.082,0 -0.26953,-0.0312 -0.55859,-0.0899 -0.29297,-0.0586 -0.52344,-0.0859 -0.69922,-0.0859 -0.125,0 -0.27734,0.0156 -0.45313,0.0508 -0.20703,0.0937 -0.41015,0.1875 -0.60156,0.28125 -0.1914,0.0937 -0.33984,0.13671 -0.4414,0.13671 -0.10547,0 -0.17579,-0.0312 -0.21094,-0.10156 -0.0234,-0.0586 0.0391,-0.17187 0.1914,-0.33984 0.15235,-0.16797 0.2461,-0.30469 0.28125,-0.41016 l 0.29297,-1.0625 c 0.17578,-0.38281 0.29297,-0.84765 0.35938,-1.39453 0.0625,-0.54687 0.0937,-1.22656 0.0937,-2.03906 0,-0.69922 -0.0352,-1.67188 -0.10156,-2.92969 -0.0703,-1.25391 -0.10547,-2.07812 -0.10547,-2.47266 0,-0.17578 -0.0273,-0.38671 -0.0781,-0.63671 -0.0547,-0.25 -0.10937,-0.50391 -0.16797,-0.75782 -0.0117,-0.0937 -0.0742,-0.17968 -0.1914,-0.26172 -0.11328,-0.082 -0.25,-0.12109 -0.39844,-0.12109 -0.0937,0 -0.29297,0.0234 -0.59375,0.0703 -0.0703,0.0117 -0.16797,0.0156 -0.29688,0.0156 -0.14843,0 -0.25,-0.0625 -0.29687,-0.19141 -0.0117,-0.0234 -0.0117,-0.0625 -0.008,-0.11328 0.008,-0.0508 0.008,-0.10156 0.008,-0.14844 0.23437,-0.16406 0.55469,-0.37109 0.96094,-0.6289 0.45312,-0.28907 0.80468,-0.5 1.0625,-0.62891 0.1289,-0.12891 0.2539,-0.26172 0.38281,-0.40234 0.21875,-0.23047 0.39062,-0.35547 0.50391,-0.36719 0.10546,-0.0312 0.1875,-0.0547 0.24609,-0.0664 0.17187,-0.0469 0.3125,-0.0703 0.41797,-0.0703 0.0234,0.0703 0.0469,0.13281 0.0703,0.19141 0.0234,0.0586 0.0352,0.0977 0.0352,0.12109 0,0.87109 -0.0312,2.14453 -0.0898,3.82031 -0.0117,0.33594 -0.0156,0.94922 -0.0156,1.83203 0.082,-0.17578 0.17969,-0.35156 0.29687,-0.52343 0.17188,-0.26953 0.29688,-0.42578 0.36328,-0.47266 0.38672,-0.23047 0.76954,-0.46875 1.15235,-0.71484 0.47656,-0.27735 0.96484,-0.41797 1.46484,-0.41797 0.25391,0 0.64063,0.0742 1.15625,0.21875 0.51953,0.14453 0.89844,0.26953 1.14453,0.375 0.28907,0.16406 0.56641,0.40234 0.82422,0.71484 0.26172,0.3125 0.51172,0.69141 0.74219,1.13281 0.19922,0.3711 0.33594,0.76563 0.41016,1.1836 0.0742,0.41797 0.11328,0.84765 0.11328,1.28906 0,0.23438 -0.0117,0.48047 -0.0352,0.75 -0.0234,0.26563 -0.0508,0.55859 -0.0859,0.87109 -0.0703,0.52344 -0.1914,0.96875 -0.36718,1.33985 -0.0937,0.19922 -0.23829,0.3789 -0.4375,0.53906 -0.0234,0.0469 -0.4336,0.625 -1.23438,1.72656 -0.54687,0.75391 -0.84375,1.375 -0.89062,1.86328 v 0.83594 c 0,0.11719 0.0742,0.21094 0.22656,0.28125 0.0703,0.0352 0.14453,0.0742 0.22656,0.1211 0.0117,0.0586 0.008,0.12109 -0.0156,0.1914 -0.0234,0.0703 -0.043,0.13281 -0.0547,0.19141 -0.0586,0.0586 -0.14844,0.0859 -0.27735,0.0859"
     id="path27" />
  <path
     fill-rule="nonzero"
     fill="#231f20"
     fill-opacity="1"
     d="m 169.27734,237.68463 c -0.10937,0.043 -0.4375,0.14063 -0.98437,0.29688 -0.14063,0 -0.24219,-0.0117 -0.3125,-0.0312 l 0.0703,-0.40234 0.78125,-0.82032 c 0.0703,-0.14062 0.21094,-0.36718 0.42187,-0.68359 0.20703,-0.3125 0.39453,-0.60938 0.55469,-0.88672 0.11719,-0.25781 0.28516,-0.57422 0.50781,-0.94531 0.38282,-0.64063 0.70703,-1.19922 0.97266,-1.67188 0.0469,-0.12109 0.125,-0.27734 0.22656,-0.47265 0.10547,-0.19922 0.19531,-0.39844 0.26172,-0.59375 0.0234,-0.0234 0.082,-0.125 0.17578,-0.29688 0.16406,-0.30078 0.26563,-0.47656 0.3125,-0.52344 0.0586,-0.15234 0.17578,-0.3789 0.35156,-0.68359 0.34766,-0.59375 0.66797,-1.16406 0.95704,-1.71094 0.33593,-1 0.58203,-1.75 0.73046,-2.25 0.23438,-0.74609 0.35547,-1.1289 0.36719,-1.15234 0.10547,0 0.19141,0.0156 0.26172,0.0508 0.12891,0.28125 0.21484,0.47656 0.26172,0.59375 0.12891,0.34766 0.19531,0.52734 0.20703,0.53906 0.64063,1.7461 1.12109,3.02735 1.44922,3.85547 0.28906,0.75391 0.67187,1.6875 1.14844,2.78906 0.61718,1.17188 1,1.89454 1.15234,2.16016 0.14844,0.26953 0.39453,0.66797 0.73047,1.20313 l 0.87109,0.87109 c 0.23047,0.0937 0.42188,0.17578 0.56641,0.24609 0.14453,0.0703 0.28125,0.14844 0.41016,0.24219 l -0.0703,0.14063 -3.13672,-0.0703 -0.97656,0.10547 v -0.38281 l 0.27735,-0.0898 c -0.0195,-0.21875 -0.0664,-0.47266 -0.13672,-0.75782 -0.0703,-0.28515 -0.13282,-0.54687 -0.19141,-0.79297 -0.1875,-0.5 -0.42578,-1.08593 -0.71484,-1.75781 -0.19922,-0.46484 -0.40625,-1.0039 -0.62891,-1.62109 -0.0586,-0.0234 -0.22656,-0.36328 -0.50391,-1.01953 -0.28125,-0.65625 -0.4375,-0.99219 -0.47265,-1.00391 -0.0781,-0.16016 -0.27344,-0.55078 -0.57422,-1.16797 -0.0937,-0.19531 -0.15234,-0.35937 -0.17188,-0.48828 l -0.28125,0.10547 c -0.35937,0.74609 -0.63671,1.32422 -0.83593,1.74219 -0.34766,0.78125 -0.5625,1.23437 -0.64453,1.35937 -0.21094,0.51172 -0.45313,1.07813 -0.73047,1.69141 -0.17578,0.38281 -0.26953,0.60937 -0.28125,0.68359 0.53515,-0.12109 0.9375,-0.21484 1.20312,-0.28906 0.26563,-0.0781 0.58203,-0.18359 0.94141,-0.32422 h 0.87109 c 0.0703,0.0352 0.21875,0.11328 0.44531,0.23828 0.22657,0.125 0.48829,0.25 0.79297,0.375 h 0.75 l 0.0352,0.36328 c -0.24609,0.1211 -0.48828,0.22266 -0.72656,0.30078 -0.23828,0.0781 -0.80469,0.25 -1.69922,0.51563 h -0.73047 c -0.23438,-0.17188 -0.46484,-0.33984 -0.69531,-0.50391 -0.16407,-0.11718 -0.33985,-0.21875 -0.52344,-0.3125 h -0.19141 c -0.11718,0 -0.23437,0.004 -0.35156,0.0156 -0.11328,0.0117 -0.21484,0.0195 -0.29297,0.0195 -0.17578,0.26562 -0.32031,0.53906 -0.4375,0.81641 -0.11719,0.28125 -0.26172,0.63281 -0.4375,1.0664 v 0.66016 c 0.14063,0.0937 0.22266,0.15234 0.2461,0.17578 0.0234,0.0234 0.0703,0.0898 0.14062,0.20703 -0.29297,0.0117 -0.55469,0.0273 -0.78516,0.043 -0.23437,0.0195 -0.42968,0.0273 -0.59375,0.0273 -0.11718,0.0977 -0.23046,0.16407 -0.33984,0.20703"
     id="path28" />
  <path
     fill-rule="nonzero"
     fill="#231f20"
     fill-opacity="1"
     d="m 84.32422,227.0362 c -0.0937,0.0469 -0.24219,0.0859 -0.45313,0.12109 l 0.12109,-0.41797 0.82032,-1.23047 v -0.97265 l -0.53907,-0.73047 c -0.0586,-0.0352 -0.11718,-0.0625 -0.17578,-0.0859 -0.14843,-0.0703 -0.26562,-0.12891 -0.34765,-0.17578 v -0.22656 l 1.0039,-0.3125 0.47657,-0.60547 c 0.0976,-0.0234 0.16406,-0.043 0.20312,-0.0625 0.043,-0.0156 0.12109,-0.0586 0.23828,-0.12891 l 0.72656,0.0859 0.21094,0.60937 v 1.38672 l -0.24609,0.90625 c -0.0352,0.0234 -0.26953,0.25782 -0.69531,0.71094 -0.2461,0.25391 -0.53125,0.53125 -0.85547,0.83203 -0.15235,0.082 -0.3125,0.17969 -0.48828,0.29688"
     id="path29" />
  <path
     fill-rule="nonzero"
     fill="#a47343"
     fill-opacity="1"
     d="m 104.375,15.387762 c -5.82422,52.69141 -51.63282,83.31641 -73.07813,116.499998 -4.37109,6.76562 -11.91406,-8.46875 -11.91406,-8.46875 -10.85547,29.125 40.01562,49.45703 59.04297,50.30859 C 3.23047,137.71588 129.79297,100.9112 104.375,15.387762"
     id="path30" />
  <path
     fill="none"
     stroke-width="2"
     stroke-linecap="butt"
     stroke-linejoin="miter"
     stroke="#231f20"
     stroke-opacity="1"
     stroke-miterlimit="10"
     d="m 104.375,15.387762 c -5.82422,52.69141 -51.63282,83.31641 -73.07813,116.499998 -4.37109,6.76563 -11.91406,-8.46875 -11.91406,-8.46875 -10.85547,29.125 40.01562,49.45703 59.04297,50.30859 C 3.23047,137.71589 129.79297,100.9112 104.375,15.387762 Z m 0,0"
     id="path31" />
  <path
     fill-rule="nonzero"
     fill="#a47343"
     fill-opacity="1"
     stroke-width="2"
     stroke-linecap="butt"
     stroke-linejoin="miter"
     stroke="#231f20"
     stroke-opacity="1"
     stroke-miterlimit="10"
     d="m 35.69922,162.78229 c -4.50391,-1.9414 -10.39844,-7.62109 -10.39844,-7.62109 l -4.69141,14.92969 c -0.17187,-0.0117 -0.33984,-0.0274 -0.51172,-0.0274 -4.27734,0 -7.74218,3.46875 -7.74218,7.7461 0,4.27343 3.46484,7.74218 7.74218,7.74218 4.27735,0 7.7461,-3.46875 7.7461,-7.74218 0,-1.07813 -0.21875,-2.10157 -0.61719,-3.03125 z m 0,0"
     id="path32" />
  <path
     fill-rule="nonzero"
     fill="#bf935b"
     fill-opacity="1"
     d="m 89.28125,6.3877623 c -8.37891,39.4570297 24.64062,80.5078097 46.60156,109.3515577 11.22266,14.73438 18.00391,-9.79687 18.26953,10.0625 0.44531,33.46875 -30.75,46.28125 -49.77734,47.13281 C 165.53906,115.12213 45,86.731512 89.28125,6.3877623"
     id="path33" />
  <path
     fill="none"
     stroke-width="2"
     stroke-linecap="butt"
     stroke-linejoin="miter"
     stroke="#231f20"
     stroke-opacity="1"
     stroke-miterlimit="10"
     d="m 89.28125,6.3877623 c -8.37891,39.4570297 24.64062,80.5078097 46.60156,109.3515577 11.22266,14.73438 18.00391,-9.79687 18.26953,10.0625 0.44531,33.46875 -30.75,46.28125 -49.77734,47.13282 C 165.53906,115.12214 45,86.731512 89.28125,6.3877623 Z m 0,0"
     id="path34" />
  <path
     fill-rule="nonzero"
     fill="#bf935b"
     fill-opacity="1"
     stroke-width="2"
     stroke-linecap="butt"
     stroke-linejoin="miter"
     stroke="#231f20"
     stroke-opacity="1"
     stroke-miterlimit="10"
     d="m 142.46093,162.60651 c 7.32813,-5.11719 10.76563,-13.23828 10.76563,-13.23828 l 5.53516,17.14844 c 0.16406,-0.0469 0.32421,-0.0937 0.49609,-0.13282 4.17578,-0.91406 8.30469,1.73047 9.22266,5.91016 0.91406,4.17578 -1.73047,8.30469 -5.91016,9.21875 -4.17969,0.91797 -8.30859,-1.73047 -9.22266,-5.90625 -0.23047,-1.05078 -0.23437,-2.09766 -0.0469,-3.09375 z m 0,0"
     id="path35" />
</svg>
