<svg viewBox="0 0 268 300" fill="none" xmlns="http://www.w3.org/2000/svg" class="w-40 sm:w-44 md:w-72 lg:w-64 xl:w-80 2xl:w-96 flex-shrink-0"><path d="M0 0h267.1v81.622c0 23.34 0 35.01-1.12 45.823 0 94.72-56.968 132.722-132.43 172.555C56.84 259.508 1.12 224.149 1.12 127.445 0 116.632 0 104.962 0 81.622V0Z" fill="#274CAA"></path><path d="M105.844 162.103h-2.601v-23.376h4.752c1.803 0 3.167.666 4.092 1.998.948 1.308 1.422 2.967 1.422 4.976 0 2.01-.474 3.68-1.422 5.012-.925 1.308-2.289 1.963-4.092 1.963h-2.151v9.427Zm1.908-11.776c.994 0 1.745-.42 2.254-1.261.532-.841.798-1.963.798-3.365 0-1.402-.266-2.523-.798-3.364-.509-.841-1.26-1.262-2.254-1.262h-1.908v9.252h1.908ZM126.436 162.103h-2.81l-3.017-9.427h-2.046v9.427h-2.601v-23.376h4.855c1.596 0 2.89.631 3.885 1.893 1.017 1.238 1.526 2.908 1.526 5.011 0 1.869-.324 3.33-.971 4.381-.625 1.051-1.365 1.741-2.22 2.068l3.399 10.023Zm-5.966-11.776c.995 0 1.746-.42 2.255-1.261.532-.841.797-1.963.797-3.365 0-1.402-.265-2.523-.797-3.364-.509-.841-1.26-1.262-2.255-1.262h-1.907v9.252h1.907ZM140.35 162.103h-2.671l-.936-5.362h-4.925l-.937 5.362h-2.67l4.543-23.376h3.018l4.578 23.376Zm-3.92-7.71-2.15-12.512-2.15 12.512h4.3ZM153.538 162.103h-2.601v-10.829h-5.55v10.829h-2.601v-23.376h2.601v10.164h5.55v-10.164h2.601v23.376ZM168.089 162.103h-2.671l-.936-5.362h-4.925l-.937 5.362h-2.67l4.543-23.376h3.018l4.578 23.376Zm-3.919-7.71-2.151-12.512-2.15 12.512h4.301ZM89.592 130.18a.5.5 0 0 1-.5.5H78.079a.5.5 0 0 1-.5-.5v-26.467a.5.5 0 0 0-.5-.5H65.875a.5.5 0 0 0-.5.5v26.467a.5.5 0 0 1-.5.5H53.862a.5.5 0 0 1-.5-.5V67.566a.5.5 0 0 1 .5-.5h11.013a.5.5 0 0 1 .5.5v24.656a.5.5 0 0 0 .5.5h11.204a.5.5 0 0 0 .5-.5V67.566a.5.5 0 0 1 .5-.5h11.013a.5.5 0 0 1 .5.5v62.614ZM122.11 130.18a.5.5 0 0 1-.5.5H94.77a.5.5 0 0 1-.5-.5V67.566a.5.5 0 0 1 .5-.5h26.84a.5.5 0 0 1 .5.5v9.587a.5.5 0 0 1-.5.5h-14.826a.5.5 0 0 0-.5.5v14.355a.5.5 0 0 0 .5.5h14.159a.5.5 0 0 1 .5.5v9.586a.5.5 0 0 1-.5.5h-14.159a.5.5 0 0 0-.5.5v15.499c0 .277.223.5.5.5h14.826a.5.5 0 0 1 .5.5v9.587ZM174.818 130.18a.5.5 0 0 1-.5.5h-10.822a.5.5 0 0 1-.5-.5V96.723c0-.581-.824-.695-.981-.136l-9.499 33.728a.501.501 0 0 1-.482.365h-3.245a.5.5 0 0 1-.482-.367l-9.309-33.66c-.155-.56-.982-.449-.982.134v33.393a.5.5 0 0 1-.5.5h-11.013a.5.5 0 0 1-.5-.5V67.566a.5.5 0 0 1 .5-.5h14.376a.5.5 0 0 1 .481.365l8.577 30.474c.136.483.821.486.961.003l8.847-30.481a.5.5 0 0 1 .48-.36h14.093a.5.5 0 0 1 .5.5v62.613ZM218.227 130.077a.5.5 0 0 1-.489.603h-11.354a.5.5 0 0 1-.493-.42l-1.771-10.891a.5.5 0 0 0-.493-.42h-10.972a.501.501 0 0 0-.494.42l-1.77 10.891a.5.5 0 0 1-.493.42h-11.355a.5.5 0 0 1-.489-.602l13.044-62.614a.5.5 0 0 1 .49-.398H204.6a.5.5 0 0 1 .489.398l13.138 62.613Zm-16.099-21.714a.5.5 0 0 0 .494-.581l-3.988-24.266c-.091-.558-.895-.558-.986 0l-3.988 24.266a.5.5 0 0 0 .493.581h7.975Z" fill="#fff"></path><path fill-rule="evenodd" clip-rule="evenodd" d="M68.86 145.122c.37.208.827.157 1.163-.102 1.232-.948 2.648-1.627 4.207-1.875 1.523-.242 3.142-.068 4.807.621.5.206 1.087.035 1.351-.436l5.154-9.201H73.76a8562.153 8562.153 0 0 0-3.207 4.941l-2.784 4.295a.937.937 0 0 0 .327 1.326l.764.431Zm50.568-80.738h11.174c5.517-11.396 10.665-22.144 14.823-31.025 3.211-6.855 5.828-12.59 7.57-16.65.267-.62-.468-1.037-.866-.492-2.608 3.566-6.212 8.74-10.479 14.993-6.328 9.274-14.102 20.91-22.222 33.174Zm-23.042 69.745H87.3l-5.676 10.132c-.237.423-.126.948.189 1.315.775.904 1.138 2.017 1.25 3.152.111 1.143-.025 2.34-.257 3.447-.089.419.08.856.445 1.082a94.56 94.56 0 0 0 1.778 1.075l.167.098a.929.929 0 0 0 1.302-.388l2.28-4.583c1.862-3.745 4.479-9.015 7.607-15.33Zm-10.424 22.52.022.012.005.003.01.006.057.035.218.133.79.479c.658.398 1.55.937 2.486 1.496 1.52.907 3.199 1.896 4.148 2.405.176.095.322.236.419.411l.605 1.098a1 1 0 0 1-.741 1.474l-1.04.141a.993.993 0 0 1-.662-.141l-13.631-8.447-.007-.004-.01-.005a8.332 8.332 0 0 0-.35-.195l-6.291-3.479-.008-.004-3.56-1.917-13.502-7.218a1.002 1.002 0 0 1-.488-.601l-.333-1.14a1 1 0 0 1 .96-1.28h1.65a1 1 0 0 1 .51.14l8.529 5.076.015.009 3.445 1.942a.77.77 0 0 0 .91-.116c1.26-1.213 2.74-2.047 4.354-2.303 1.603-.255 3.403.047 5.34 1.216 1.102.664 1.597 1.718 1.724 3.003.128 1.309-.138 2.787-.514 4.126a.766.766 0 0 0 .31.842c.78.526 1.952 1.235 2.917 1.805.484.287.921.541 1.237.724l.22.126.154.089.102.059Zm-8.407.252.014.008c.11.061.208.143.292.239.417.475 1.02 1.021 1.687 1.6.222.193.359.475.306.765a4.205 4.205 0 0 1-.39 1.114c-.342.684-.86 1.385-1.477 2.062-1.234 1.356-2.783 2.532-3.825 3.193a.75.75 0 0 0-.104.079c-.55.498-1.367.995-2.36 1.424-2.813 1.216-6.177 1.238-8.555.022-.883-.452-1.502-.964-2.109-1.85a.863.863 0 0 1 .051-1.048c.198-.234.43-.484.694-.745a21.85 21.85 0 0 1 2.148-1.845c1.605-1.216 3.291-2.198 4.344-2.501a.742.742 0 0 0 .19-.084c2.633-1.621 4.463-2.464 5.864-2.783 1.348-.307 2.3-.13 3.23.35Zm-.83 19.992a.767.767 0 0 1-.229 1.516c-.713-.036-1.496-.582-1.99-1.042a4.498 4.498 0 0 1-.46-.499c-.558-.698-1.824-.858-2.285-.094a652.233 652.233 0 0 1-2.942 4.82c-.102.165-.257.255-.42.349l-.002.001c-1.582.914-3.17 1.824-4.794 2.661-.17.088-.313.222-.41.387l-.752 1.287a.962.962 0 0 0 .32 1.317c4.023 2.409 8.405 3.03 12.135 2.229 2.976-.66 5.727-3.946 7.566-6.147 2.555-3.06 4.643-6.642 5.08-9.67.041-.284-.069-.561-.225-.801-.627-.964-.554-2.276-.484-3.552.022-.403.044-.803.043-1.187 0-.632-.653-.967-1.24-.731-2.807 1.128-6.53 2.022-9.391.936-.653-.248-1.461.057-1.605.74-.481 2.299-.78 5.255.914 6.834.327.305.731.547 1.17.646Zm6.916 7.766c2.36-2.825 4.492-6.265 5.239-9.475.048-.209.305-.291.459-.141.148.145.298.29.467.444.442.402.934.769 1.71 1.148.339.166.58.491.585.868.049 3.299-1.287 6.744-3.288 9.682-1.987 2.918-4.557 5.227-6.886 6.346a.947.947 0 0 1-.908-.061l-.857-.527-.022-.014-.005-.003-.004-.002-.001-.001-.003-.002-.005-.003-.003-.002c-.657-.403-1.32-.81-1.995-1.236-.645-.408-.605-1.375.02-1.812.35-.245.704-.512 1.06-.797 1.45-1.162 3.002-2.694 4.437-4.412Zm9.996-6.971c-.002 3.645-1.482 7.317-3.555 10.359-1.602 2.352-3.6 4.391-5.64 5.786-.63.431-.67 1.396-.046 1.835a36.979 36.979 0 0 1 2.225 1.689c.254.21.594.289.908.191 4.152-1.3 7.093-4.501 8.83-8.099 1.668-3.455 2.162-7.144 1.632-9.674a.946.946 0 0 0-.628-.685 34.535 34.535 0 0 1-2.621-1.04c-.361-.159-.681-.305-.97-.436l-.008-.004-.004-.001a.087.087 0 0 0-.123.079Zm4.104 12.427c1.532-3.173 2.194-6.643 1.933-9.444-.035-.372.326-.673.678-.547l.214.076c.5.179 1.013.362 1.454.517.35.123.607.428.662.794.598 4.018.674 7.03.749 10.059.036 1.426.072 2.857.162 4.398a.994.994 0 0 1-.432.886c-2.861 1.927-6.43 3.858-11.062 5.228a1 1 0 0 1-1.047-.323 36.709 36.709 0 0 0-1.527-1.702c-.52-.544-.32-1.467.36-1.789 3.65-1.733 6.254-4.834 7.856-8.153Zm6.65-7.438c.439 3.458.511 6.259.581 8.993.044 1.707.087 3.389.218 5.188a.765.765 0 0 1-.323.682c-3.088 2.177-7.03 4.438-12.292 6a.046.046 0 0 0-.023.072c.788.982 1.61 2.007 2.32 2.962.676.907 1.301 1.816 1.7 2.609a.275.275 0 0 0 .315.147c.321-.086.687-.208 1.073-.348.37-.134.746-.279 1.107-.419l.044-.017c.37-.143.73-.283 1.033-.388 3.399-1.177 6.668-2.784 9.094-4.103a66.67 66.67 0 0 0 3.608-2.095.111.111 0 0 0 .05-.086c.017-.286.038-.703.058-1.226.038-1.045.068-2.509.032-4.18-.071-3.358-.406-7.485-1.427-10.732l-.005-.014-.003-.013-.003-.009v-.002l-.011-.038-.031-.118-.051-.193-.064-.235c-.097-.357-.23-.837-.374-1.335-.146-.499-.3-1.008-.441-1.425a.642.642 0 0 0-.576-.429 67.103 67.103 0 0 1-3.001-.25c-.479-.05-.967-.105-1.435-.164a1.05 1.05 0 0 0-1.173 1.166Zm13.186 42.997a1.822 1.822 0 0 1-.174-.727c-.011-.288.167-.537.409-.694 6.905-4.466 15.766-13.769 14.333-28.129-.16-1.612-1.138-2.723-2.417-3.599-.728-.498-1.597-.949-2.536-1.391a1.04 1.04 0 0 1-.381-1.566l.352-.463.001-.001.43-.566c.363-.474.705-.906 1.021-1.264a.708.708 0 0 1 .926-.106c2.872 1.899 7.941 5.49 11.096 7.909.323.248.784.2 1.05-.109 3.375-3.924 7.539-7.229 10.075-9.048.365-.261.863-.242 1.165.09.196.214.398.462.599.741.407.563.794 1.227 1.113 1.943a.94.94 0 0 1-.03.813c-.239.461-.523.988-.835 1.566v.002l-.244.453a83.37 83.37 0 0 0-1.8 3.494c-.576 1.203-1.099 2.425-1.429 3.526-.319 1.065-.505 2.162-.248 3.037.688 2.347 2.852 6.31 5.323 10.205 2.4 3.783 5.163 7.613 7.304 9.989a.944.944 0 0 1 .253.675c-.049.929-.298 1.486-.643 1.83-.341.338-.88.577-1.73.661a.937.937 0 0 1-.731-.265c-.242-.231-.505-.477-.783-.737l-.001-.001c-2.277-2.134-5.595-5.243-7.438-8.584a.769.769 0 0 0-1.043-.302.765.765 0 0 0-.301 1.041c1.976 3.584 5.542 6.919 7.806 9.035a.62.62 0 0 1-.071.964 403.898 403.898 0 0 1-4.05 2.735l-.007.005c-1.189.797-2.455 1.645-3.734 2.512-3.098 2.101-6.272 4.314-8.523 6.131-.36.291-.871.306-1.248.038-2.277-1.621-5.454-3.567-8.568-5.427a910.029 910.029 0 0 0-3.031-1.799l-.018-.011-.005-.003-.003-.001c-1.575-.933-3.051-1.807-4.298-2.567-.573-.349-.636-1.154-.141-1.607a63.277 63.277 0 0 0 3.357-3.312c1.982-2.11 3.988-4.568 5.016-6.734a.766.766 0 0 0-1.387-.657c-.92 1.939-2.786 4.253-4.748 6.342-1.89 2.013-3.81 3.756-4.917 4.666a.84.84 0 0 1-.127.087c-1.008.559-2.201.535-3.052.098-.433-.223-.755-.54-.937-.918Zm-2.301-38.069c-.756-.321-1.568.359-1.428 1.167.451 2.606.623 5.346.673 7.664a74.016 74.016 0 0 1-.092 5.527l-.017.263-.005.077-.006.09-.002.024v.008a.766.766 0 0 1-.347.585l-.001.001-.004.003-.015.009-.057.037-.218.138c-.19.12-.468.293-.823.507a75.884 75.884 0 0 1-2.962 1.696 69.967 69.967 0 0 1-6.45 3.107c-.708.294-.865 1.243-.283 1.741 2.884 2.47 5.945 5.32 8.465 7.735a316.609 316.609 0 0 1 4.007 3.907c.214.211.408.405.583.579a.981.981 0 0 0 1.243.127c6.543-4.421 14.396-13.137 13.081-26.321-.098-.982-.671-1.742-1.758-2.486-1.008-.69-2.342-1.289-3.92-1.998h-.002v-.001l-.493-.221c-1.751-.789-4.862-2.127-7.541-3.271a3799.1 3799.1 0 0 1-1.628-.694Zm-57.637-6.323a.986.986 0 0 1-.466-1.383l5.52-10.036c.245-.445.783-.631 1.269-.484 2.614.791 5.721.547 8.345-.587.403-.174.864.181.784.613a18.383 18.383 0 0 0-.31 2.414 1.048 1.048 0 0 1-.138.478 364.783 364.783 0 0 1-3.113 5.195c-.56.921-1.065 1.746-1.43 2.34l-.222.364-.209.339a.434.434 0 0 1-.15.146l-.009.005-.297.171c-.352.202-.842.481-1.391.791-.865.487-1.869 1.042-2.715 1.486a.912.912 0 0 1-.745.045c-.436-.164-1.05-.398-1.757-.676a98.455 98.455 0 0 1-2.966-1.221Zm2.925 2.851a154.67 154.67 0 0 1-.522-.204c-1.43-.563-3.25-1.312-4.787-2.045a15.6 15.6 0 0 1-2.262-1.33l-.052-.036-.142-.098v-.001l-.002-.001-.001-.001a.633.633 0 0 0-.917.22l-1.36 2.461a1.001 1.001 0 0 0 .324 1.319l2.099 1.385 3.022 1.714.006.004 2.11 1.22a1 1 0 0 0 1.366-.365l.834-1.441.002-.003.79-1.352a1.007 1.007 0 0 0-.508-1.446Zm25.193-19.211c-.478-.731-1.106-1.476-1.824-2.219a34.66 34.66 0 0 0-1.79-1.707c-.405-.364-1.063-.172-1.306.315-.425.852-1.04 1.669-1.715 2.409-.719.79-1.528 1.518-2.298 2.133-.527.422-.512 1.212.14 1.388.077.021.157.041.24.06.956.213 2.125.221 3.361.077a20.13 20.13 0 0 0 4.768-1.187c.517-.2.728-.805.424-1.269ZM72.49 154.1a.706.706 0 0 0-.945.257c-.372.621.324 1.392 1.002 1.138.51-.19.986-.336 1.437-.438.058-.014.07-.092.018-.121l-1.512-.836Zm-2.864-1.56a1 1 0 0 1 .383 1.394l-2.273 3.794c-.12.201-.309.352-.527.439-1.256.504-2.816 1.475-4.21 2.531a23.395 23.395 0 0 0-2.303 1.979c-.66.656-1.231 1.331-1.57 1.952a.767.767 0 0 0 0 .733c.586 1.078 1.163 1.849 1.878 2.462.4.343.556.915.302 1.377l-5.554 10.098c-.266.482-.874.662-1.337.363-.195-.126-.376-.25-.549-.369l-.19-.132-.003-.002c-.408-.284-.818-.569-1.265-.791a1.04 1.04 0 0 1-.18-.112 4.144 4.144 0 0 1-.682-.663.89.89 0 0 1-.151-.788l2-7.776c.02-.073.046-.143.08-.21l6.258-12.127a.996.996 0 0 1 .267-.324l5.989-4.756c.226-.179.518-.252.803-.201.312.056.602.105.847.138.127.018.25.056.361.116l1.626.875ZM50.43 174.394l1.529-5.94a.776.776 0 0 1 .06-.16l6.524-12.641a.766.766 0 0 1 .204-.249l4.871-3.868a.331.331 0 0 0-.174-.591 71.845 71.845 0 0 0-1.047-.09l-.075-.006a.196.196 0 0 0-.126.036l-2.517 1.845a.765.765 0 0 1-.14.082l-4.786 2.139a.589.589 0 0 0-.298.3c-.13.293-.306.705-.494 1.174-.38.953-.79 2.097-.967 2.982a.765.765 0 0 1-.163.34c-.448.536-1.177 1.601-1.813 2.566-.314.475-.599.915-.804 1.237a.945.945 0 0 0-.142.631l.49 3.81a.765.765 0 0 1-.017.283l-1.084 4.343c-.049.195-.037.403.034.592.119.315.284.747.471 1.216.089.222.405.2.464-.031Zm1.704 27.61a.996.996 0 0 1-.37.349l-5.3 2.896a1 1 0 0 1-.956.001l-1.038-.563a1 1 0 0 1-.515-.76l-.777-6.489a1.001 1.001 0 0 1 .143-.647l2.204-3.549a.98.98 0 0 1 .217-.247l6.346-5.181c.32-.26.767-.298 1.126-.095l1.058.601a1 1 0 0 1 .506.907l-.331 8.804a1.003 1.003 0 0 1-.15.49l-2.163 3.483Zm-9.982-.221-.572-4.778a.765.765 0 0 1 .11-.495l2.686-4.326a.777.777 0 0 1 .166-.19l5.652-4.613a1 1 0 0 0-.082-1.609l-.525-.347a.999.999 0 0 0-1.085-.011l-6.114 3.861a.99.99 0 0 0-.33.341l-2.74 4.688a.999.999 0 0 0-.115.708l1.46 7.014a.756.756 0 0 0 1.49-.243Zm14.09-10.639a1 1 0 0 1 1.5-.828l.317.183a1 1 0 0 1 .494.764l.808 7.908a1 1 0 0 1-.137.616l-2.545 4.249c-.109.182-.273.324-.468.407l-6.676 2.822a.857.857 0 0 1-.744-1.54l4.118-2.25a.765.765 0 0 0 .283-.268l2.656-4.276a.765.765 0 0 0 .115-.375l.279-7.412Zm139.331 7.551c-7.789 6.029-16.049 11.535-23.571 16.549l-.003.002c-2.591 1.728-5.095 3.397-7.461 5.008a.98.98 0 0 1-1.299-.165c-1.823-2.134-4.048-5.215-6.089-8.374a.969.969 0 0 1-.087-.894c1.046-2.553 2.649-5.186 4.565-7.932 1.503-2.154 3.176-4.347 4.902-6.611h.001l.001-.002.001-.001.002-.002c.713-.935 1.435-1.881 2.158-2.842 3.407-4.528 7.325-9.103 11.515-13.539a202.18 202.18 0 0 1 15.013-14.315c7.95-6.834 12.599-10.67 20.41-13.293a.919.919 0 0 1 1.026.294c1.149 1.491 2.328 3.921 3.277 6.843 1.094 3.369 1.843 7.274 1.9 10.889a.962.962 0 0 1-.117.476c-5.525 10.232-15.324 19.535-26.144 27.909Zm8.851-17.278a.766.766 0 0 1 .98-.464c.399.142.608.58.465.979-.232.65-.676 1.355-1.241 2.081-.571.735-1.297 1.531-2.132 2.364-1.669 1.665-3.808 3.514-6.101 5.36-4.586 3.694-9.833 7.421-13.267 9.726a.766.766 0 1 1-.856-1.273c3.408-2.287 8.617-5.987 13.16-9.646 2.272-1.83 4.365-3.64 5.98-5.251.807-.806 1.485-1.553 2.004-2.22.525-.675.856-1.231 1.008-1.656Zm-34.408-10.134c2.01.48 3.793 1.419 5.303 2.513a20.962 20.962 0 0 1 3.68 3.447c.397.472 1.122.515 1.551.071a204.006 204.006 0 0 1 12.952-12.279.49.49 0 0 0 .11-.62c-.218-.368-.52-.81-.893-1.304a31.768 31.768 0 0 0-2.879-3.268c-1.131-1.127-2.375-2.206-3.596-3.047-.889-.611-1.735-1.074-2.496-1.346a.902.902 0 0 0-.895.189c-4.896 4.271-9.54 8.88-13.511 13.935-.483.614-.087 1.527.674 1.709Zm-4.735 16.563c-1.316-1.324-2.894-2.659-4.472-3.636-.504-.312-.678-.98-.354-1.477.819-1.254 1.587-2.457 2.328-3.617 1.412-2.209 2.724-4.262 4.093-6.219a.945.945 0 0 1 .819-.41c2.568.137 4.839 1.185 6.723 2.549 1.55 1.123 2.817 2.445 3.741 3.601.3.376.265.913-.063 1.265-3.265 3.51-6.355 7.102-9.156 10.686-.334.428-1.001.392-1.321-.046-.613-.839-1.422-1.775-2.338-2.696Zm-8.583 20.118c-.369.718-1.401.783-1.809.086-1.64-2.799-2.9-5.317-3.363-6.896-.123-.418-.062-1.141.246-2.167.296-.989.779-2.129 1.342-3.304a83.379 83.379 0 0 1 1.768-3.43l.087-.162.154-.285v-.001c.48-.89.916-1.7 1.217-2.325.353-.732.894-1.609 1.47-2.525l.078-.125.099-.156.018-.028.003-.006.001-.001c.182-.288.365-.579.542-.865.279-.45.857-.621 1.31-.347 1.473.89 3.012 2.173 4.331 3.499.872.877 1.628 1.755 2.187 2.519.238.326.429.617.577.868.182.311.134.695-.083.982a811.3 811.3 0 0 1-1.537 2.02l-.002.003-.001.001-.001.001c-1.736 2.275-3.44 4.51-4.963 6.693-1.397 2.002-2.659 3.985-3.671 5.951Zm30.417-52.43a16.304 16.304 0 0 0-1.034-.659c-.648-.38-.788-1.321-.208-1.799a105.272 105.272 0 0 1 4.879-3.809c2.737-1.999 5.528-3.77 7.762-4.623 2.721-1.039 5.616-.654 8.591.709 2.219 1.017 4.447 2.563 6.616 4.409.58.493.387 1.423-.324 1.694-6.825 2.602-11.428 6.313-18.299 12.205a.11.11 0 0 1-.166-.027 16.106 16.106 0 0 0-.987-1.446 33.58 33.58 0 0 0-3.021-3.431c-1.176-1.171-2.491-2.316-3.809-3.223Zm37.691 13.008c.438-.217.873-.418 1.276-.597a44.56 44.56 0 0 1 1.691-.708.31.31 0 0 0 .197-.294c-.163-9.806-3.559-17.341-8.658-22.298-4.935-4.797-11.505-7.221-18.417-6.932a.925.925 0 0 0-.879.757 69.18 69.18 0 0 0-.203 1.199l-.017.099c-.074.455-.156.96-.252 1.507-.126.719.528 1.349 1.255 1.285 2.322-.204 4.666.355 6.946 1.399 3.204 1.468 6.345 3.922 9.251 6.696 1.647 1.573 3.23 4.695 4.398 8.293.875 2.695 1.541 5.73 1.826 8.721.072.752.909 1.207 1.586.873Z" fill="#fff"></path></svg>