<?xml version="1.0" encoding="UTF-8" standalone="no"?>
<svg
   xmlns:dc="http://purl.org/dc/elements/1.1/"
   xmlns:cc="http://creativecommons.org/ns#"
   xmlns:rdf="http://www.w3.org/1999/02/22-rdf-syntax-ns#"
   xmlns:svg="http://www.w3.org/2000/svg"
   xmlns="http://www.w3.org/2000/svg"
   width="148.17418mm"
   height="154.32405mm"
   viewBox="0 0 148.17418 154.32405"
   version="1.1"
   id="svg8">
  <defs
     id="defs2" />
  <metadata
     id="metadata5">
    <rdf:RDF>
      <cc:Work
         rdf:about="">
        <dc:format>image/svg+xml</dc:format>
        <dc:type
           rdf:resource="http://purl.org/dc/dcmitype/StillImage" />
        <dc:title></dc:title>
      </cc:Work>
    </rdf:RDF>
  </metadata>
  <path
     id="beak"
     d="m 33.70032,30.933272 c -2.794502,-4.305766 -3.683677,-5.52162 -9.291696,-3.843126 -3.12649,0.935766 -6.229654,3.478415 -5.58252,5.538286 2.143271,-1.657954 2.723436,-1.88259 4.132082,-2.264889 2.030756,-0.551136 4.281065,-0.562052 5.563226,-0.576735 2.526828,-0.02894 2.521562,-0.02585 2.524967,0.368566 0.0034,0.394421 -0.01702,0.363934 -2.531271,0.389784 -2.565899,0.02638 -7.523845,0.358609 -8.616652,2.097603 3.874364,-0.384846 4.313642,0.379554 10.097026,0.747355 0.479738,-0.81929 1.889194,-1.824827 3.704838,-2.456844 z"
     style="fill:#000000;fill-opacity:1;fill-rule:evenodd;stroke:none;stroke-width:0.26458332px;stroke-linecap:butt;stroke-linejoin:miter;stroke-opacity:1" />
  <path
     id="path4552"
     d="m 39.382289,22.689141 c -6.073203,-0.02725 -4.596968,2.142014 -9.623184,3.26957 v 5.29e-4 c -0.811842,0.182124 -0.919324,0.459404 -0.919324,0.459404 0,0 1.031648,-0.187494 2.170928,0.295071 1.13928,0.482566 2.265442,2.539559 3.505213,4.295347 -2.068073,1.076092 -2.268577,1.201243 -3.57446,2.10168 -0.361056,0.248955 -0.23445,0.59894 0.243911,0.841291 0.723437,0.366514 1.617298,1.182423 2.551266,2.253609 0.737484,0.845831 1.842233,3.008601 1.917714,3.535702 0.02545,0.177725 0.226123,0.562411 0.51263,0.609782 0.373494,0.06175 1.149651,0.03989 1.251603,0.285255 0.144034,0.346636 1.454365,0.229534 2.04587,0.22996 1.669923,0.0013 1.725893,0.0822 2.722313,-0.559138 1.193028,-0.76789 1.91792,-1.432219 2.956926,-2.246892 0.466322,-0.365641 0.853911,-0.276315 0.250631,0.793231 -0.404947,0.717928 -0.469394,0.802092 -0.860411,1.512054 -0.168027,0.305078 -0.791554,0.0479 -0.951881,0.233577 -0.147111,0.170368 0.07077,0.921856 -0.208772,1.227833 -0.138777,0.151855 -0.824773,0.187325 -1.216465,0.142627 -0.268083,-0.03059 -0.587277,-0.658445 -0.723468,-0.587045 -0.144042,0.07552 -0.0091,0.798825 -0.246497,0.94723 -0.304027,0.190084 -0.997024,-0.518036 -1.133782,-0.494543 -0.310885,0.05341 -0.368688,1.232421 -0.902787,1.33015 -0.368279,0.06738 -0.586092,-0.202356 -0.845426,-0.694015 -0.309488,-0.586743 -1.208794,-1.506493 -1.710491,-1.206127 -0.498523,0.298463 0.329459,3.093545 0.604615,5.060156 0.355105,2.538021 1.053986,8.788709 1.705322,10.298078 3.426208,7.939691 5.725419,12.373028 10.964706,18.349269 3.372008,3.846319 5.679323,4.765598 6.850745,5.516459 1.952942,1.2518 1.388586,1.651106 4.844148,1.533756 2.933641,-0.09963 1.570783,-0.469549 2.9099,-0.513147 0.55779,-0.01815 0.825463,0.04417 0.898652,0.265616 0.13947,0.421999 0.956046,3.258899 1.394749,4.615741 0.68758,2.126577 0.379552,1.899943 1.745628,1.276924 0.525333,-0.239591 1.029454,-0.501912 1.831414,-0.505913 0.587801,-0.0032 1.025297,0.12912 1.290875,0.315225 0.831041,0.582372 0.908442,0.748919 1.004592,-0.07958 0.04781,-0.411998 0.4392,-1.546886 0.990637,-2.426208 0.650356,-1.037058 1.48223,-1.84995 1.756481,-1.860351 0.311301,-0.0118 1.49234,-0.03126 1.860352,0.05375 0.552291,0.12755 0.288483,0.534659 1.289843,0.01913 0.88024,-0.453228 2.142038,-0.810009 4.577498,-0.04651 1.378842,0.432249 5.671198,2.062133 8.79533,3.196703 0.531331,0.192961 2.578452,0.981758 1.665531,-0.318844 -0.4352,-0.62003 -0.130631,-0.809257 0.45372,-0.527097 2.661799,1.285308 3.999746,1.913183 10.777636,4.980574 1.54074,0.69727 1.57573,0.0055 2.34249,0.368451 1.67062,0.790821 4.0178,2.328238 5.35471,2.171446 0.95985,-0.112569 1.02829,-0.39371 2.33857,-0.375703 0.79143,-0.03453 1.0124,0.140851 1.57664,0.328785 0.5168,0.172138 1.51098,0.36264 1.80082,0.142097 0.24566,-0.223171 -0.46623,-1.613379 -0.27875,-1.79863 0.29675,-0.239495 1.69281,0.751033 2.33848,0.72625 0.48257,-0.07156 -0.29533,-0.893527 -1.0356,-1.854153 -1.77915,-2.308748 -3.72816,-3.66228 -5.80484,-5.51044 -2.22922,-1.983914 -5.69606,-4.873164 -8.10152,-6.608172 -0.47796,-0.344744 -0.73917,-0.588092 -0.83773,-0.353314 -0.1056,0.434057 -0.10971,0.94293 -0.4434,1.113806 -0.31249,0.114202 -0.49958,0.205105 -1.09509,0.104743 -0.0839,1.315196 1.10068,2.419125 1.64988,3.294174 0.27866,0.447619 0.31516,0.567886 0.31833,1.231966 0.004,0.910309 -0.12417,0.848696 -0.8847,0.853694 -2.00926,0.01328 -1.83607,-0.139205 -6.559806,-2.333707 -6.68723,-3.10669 -9.674553,-4.590526 -16.032615,-7.674467 -5.059971,-2.45431 -12.086246,-5.127181 -17.631481,-7.413501 -0.869098,-0.35833 -0.944713,-0.579641 -1.997295,-1.874821 -1.342302,-1.65168 -5.773673,-6.782803 -8.712647,-10.925429 -1.77511,-2.502112 -3.810433,-6.364584 -4.463809,-8.738486 -0.461663,-1.677358 -0.08888,-3.69901 0.476457,-4.636926 1.589701,-2.637362 1.896409,-2.448552 1.249021,0.840258 -0.722167,3.668681 2.088864,11.188382 7.786087,13.665832 2.665529,1.159121 2.272831,0.816994 1.715656,-0.225824 -0.402527,-0.753391 -0.415433,-0.970505 -0.504359,-1.955954 -0.08298,-0.919509 0.498178,-1.084111 1.189074,0.118338 0.647891,1.127601 0.808067,1.451631 1.602486,2.598293 0.63714,0.919638 1.221004,1.481492 2.091343,1.460891 0.822452,-0.01947 0.831371,0.06244 0.933278,-0.522449 0.119028,-0.68317 0.304747,-1.573522 0.606682,-1.690851 0.301932,-0.117332 0.490739,-0.107349 0.669208,0.20257 0.252598,0.43865 0.488762,0.907944 0.668176,1.302764 0.497425,1.094639 0.33474,0.977992 1.432989,0.285252 0.892042,-0.562676 2.506207,-1.51135 2.831867,-1.336352 0.880311,0.473041 0.731086,0.979831 -0.658358,1.571482 -1.779971,0.757939 -3.131441,1.496613 -4.077787,1.486212 -1.589786,-0.01741 -5.304885,-0.739468 -9.861928,-2.236038 1.51303,2.12939 2.425692,3.424271 4.296378,5.932971 2.00846,2.693519 2.885019,2.596809 3.443716,2.608109 0.842672,0.01709 1.998215,-0.319397 1.85415,-1.027327 -0.0758,-0.37247 -0.347385,-0.754771 -0.534334,-1.085723 -0.264554,-0.468328 -0.470625,-0.926663 -0.643372,-1.436602 -0.149807,-0.44223 0.285716,-0.823802 0.743625,-0.333831 0.700019,0.749031 1.04493,1.309249 1.712039,2.087727 0.884246,1.031862 1.249075,1.491353 2.158527,1.738913 0.450384,0.1226 0.552995,-0.232614 0.631483,-0.330213 0.07849,-0.09756 0.368195,-0.247346 0.379823,-0.331245 0.01164,-0.08386 -0.118052,-0.236567 -0.300757,-0.363286 -0.231137,-0.160309 -0.218133,-1.430819 -0.120923,-1.766301 0.134972,-0.46582 0.648309,-0.324098 0.776698,-0.14211 0.610648,0.865622 1.283123,2.159296 2.497005,2.188498 1.059532,0.02548 1.386367,-1.996934 1.461926,-2.714564 0.07718,-0.732991 1.054733,-0.726403 1.077452,-0.133842 0.02784,0.72575 0.03456,0.858039 0,2.012797 -0.02611,0.872731 -0.794623,2.272932 -2.205032,2.104781 -2.048624,-0.244239 -1.993106,-0.223869 -2.522326,0.501261 -0.733866,1.005531 -1.487085,1.237377 -2.538865,0.460439 -0.778179,-0.574842 -0.999228,-0.890561 -1.609719,-0.942062 -0.706297,-0.05952 -1.399067,0.472556 -1.277443,0.914156 0.159255,0.578229 2.477479,1.690532 4.189926,2.465483 1.853385,0.838719 2.904164,1.190974 4.44314,1.185974 1.172583,-0.0042 2.598944,-0.629643 2.706296,-1.703772 0.115699,-1.157761 0.915146,-1.007488 1.169437,-0.634587 0.340328,0.499049 0.518284,1.24551 -0.01707,1.887739 -0.570201,0.68403 -0.941554,0.764505 -1.586984,1.369428 0.578681,0.677156 1.883876,0.550576 12.135175,5.879226 1.846631,0.95988 9.99911,5.350656 11.40809,5.999118 2.61222,1.202219 1.57286,0.222797 0.24392,-0.552421 -4.670015,-2.724192 -7.226795,-4.413009 -11.175035,-6.731889 -3.917251,-2.300671 -6.966878,-4.33918 -7.567498,-4.727361 -1.281269,-0.82809 -2.027526,-1.527884 -1.503268,-2.205034 0.495891,-0.640509 2.811317,1.410972 5.028118,2.939872 2.273829,1.568231 4.724329,3.203181 8.084778,5.31182 1.987121,1.246891 7.172065,4.592722 9.053715,5.997051 1.20066,0.89608 2.72826,2.057009 0.56793,-0.902271 -0.99715,-1.365899 -1.71759,-2.594393 -2.23966,-2.846853 -1.991597,-0.963142 -5.24417,-2.735078 -8.87595,-5.164027 -3.631782,-2.428949 -6.054555,-4.30947 -7.810378,-5.703011 -0.871535,-0.69169 -0.442997,-0.926476 0.467672,-0.668176 0.910672,0.258299 11.255174,6.843855 12.985255,7.869803 1.730079,1.025951 6.503291,3.50601 5.690611,2.453082 -4.305691,-5.578581 -4.736759,-6.216976 -14.482839,-13.563513 -1.43492,-1.08164 -1.901208,-1.353873 -1.696537,-1.601454 0.204679,-0.247589 1.068861,0.147712 2.852023,1.537891 1.34307,1.04707 1.760675,1.547624 2.177645,1.367874 0.41697,-0.179739 -0.09994,-1.051366 -0.601514,-1.544608 C 87.166692,59.447206 78.097509,53.3482 73.240674,49.870453 67.972923,46.098469 59.63191,41.172901 57.972872,39.045791 55.890262,36.375592 53.110158,31.93622 51.515904,30.046338 49.921649,28.156462 45.359044,22.715986 39.382276,22.689165 Z m -2.252059,3.841628 c 0.681477,-5.29e-4 1.469655,0.368663 1.723927,1.274858 -0.571905,-0.07759 -1.115978,-0.105156 -1.54926,0.0708 -0.632695,0.256929 -1.067395,0.720881 -1.322916,0.219109 -0.25659,-0.50387 -0.165484,-1.271847 0.701249,-1.507403 0.138012,-0.03751 0.289737,-0.05721 0.447,-0.05736 z m 6.540169,30.377474 c 0.254889,-0.0011 0.538763,0.158668 0.777214,0.552421 1.218086,2.011418 2.225595,3.827102 3.958415,6.579441 -1.239978,-0.257709 -4.055295,-3.881419 -5.193998,-5.573818 -0.52151,-0.775102 -0.102383,-1.555449 0.458369,-1.558044 z"
     style="fill:#000000;fill-opacity:1;fill-rule:evenodd;stroke:none;stroke-width:0.26458332px;stroke-linecap:butt;stroke-linejoin:miter;stroke-opacity:1" />
  <path
     id="beak-3"
     d="m 63.35883,83.014205 c -4.295845,0.14655 -3.626515,0.0603 -5.293247,-1.33663 l 0.38399,5.076 c 0.09184,1.21407 -0.08808,1.22759 0.981616,0.58409 0.437509,-0.26319 1.561959,-0.17439 1.872841,-0.017 0.330366,0.16728 0.239459,0.63779 0.345959,0.77103 0.08539,0.10683 0.5169,0.01 0.723976,0.17924 0.221565,0.18106 0.195839,0.91796 0.202664,1.38106 0.0052,0.35343 -0.144376,0.35 0.149808,0.0296 0.724963,-0.78964 2.55963,-2.62141 2.568121,-2.91165 0.01,-0.34097 -0.567651,-2.00781 -0.859593,-2.94279 -0.305501,-0.97841 -0.09345,-0.86698 -1.076135,-0.81296 z"
     style="fill:#000000;fill-opacity:1;fill-rule:evenodd;stroke:none;stroke-width:0.26458332px;stroke-linecap:butt;stroke-linejoin:miter;stroke-opacity:1" />
  <path
     id="beak-3-6"
     d="m 49.278016,95.211035 c -1.154453,0.90477 -1.061573,0.97793 -2.493674,0.99015 -3.291011,0.0281 -1.471141,-0.40013 -3.100252,-0.35567 -1.471438,0.0402 -2.252745,0.75647 -2.489157,1.73514 -0.619106,0.127 -2.389561,0.8583 -1.42381,1.93749 0.399306,-0.71104 1.069136,-0.85317 1.732983,-0.82321 0.353536,0.45352 0.576388,0.52832 1.084308,0.52941 1.443276,0.003 0.277483,-0.47909 2.498973,-0.45694 1.424279,0.0142 1.181484,0.3236 2.226227,0.30784 1.097742,-0.0165 1.246325,0.16581 3.561474,-1.1372 3.339971,-1.87979 1.958259,0.0137 4.688865,-2.58331 -1.955647,-0.0812 -1.548171,0.0154 -1.615295,-0.23176 -0.08301,-0.30574 6.719008,-4.71494 7.550663,-5.57288 0.473923,-0.48891 -0.257811,-0.82333 -0.320224,-0.90985 -0.06281,-0.0871 -0.433293,-1.76803 -2.322435,-0.31694 -5.319913,4.08633 -0.560363,-0.18004 -9.578646,6.88773 z"
     style="fill:#000000;fill-opacity:1;fill-rule:evenodd;stroke:none;stroke-width:0.26458332px;stroke-linecap:butt;stroke-linejoin:miter;stroke-opacity:1" />
  <path
     id="beak-3-6-7"
     d="m 63.021254,95.582415 c -0.703873,0.75174 -0.406962,0.66708 -1.267982,0.67703 -2.425246,0.028 -0.263841,-0.53595 -3.56045,-0.50479 -2.341425,0.0221 -2.953915,0.13766 -3.705343,1.37207 -0.9114,0.0383 -2.597176,0.28657 -2.505446,1.92355 0.794346,-0.42679 1.504468,-0.6994 2.373376,-0.72922 0.577893,0.67745 0.421819,0.71625 2.65251,0.72447 3.859651,0.0142 2.711323,-0.7759 6.366278,-0.74691 4.145261,0.0329 3.14813,-0.31394 5.046498,-0.39184 1.83061,-0.0751 1.137063,-0.52461 2.687451,-0.5008 0.796015,0.0122 1.693446,0.19606 3.263273,1.29689 -0.08737,-1.09591 -1.188823,-2.79692 -2.377519,-2.66258 -2.335633,0.26396 -5.119067,0.19099 -5.334293,-0.20897 -0.150127,-0.27898 4.564928,-6.34018 4.583007,-6.83449 0.0326,-0.89127 -0.155075,-0.67477 -1.245734,-0.71291 -1.429525,-0.05 -1.656764,-0.0447 -2.086915,0.67377 -0.339319,0.56674 -4.288782,5.98399 -4.888711,6.62473 z"
     style="fill:#000000;fill-opacity:1;fill-rule:evenodd;stroke:none;stroke-width:0.26458332px;stroke-linecap:butt;stroke-linejoin:miter;stroke-opacity:1" />
  <path
     style="fill:#000000;fill-opacity:1;fill-rule:evenodd;stroke:none;stroke-width:0.26458332px;stroke-linecap:butt;stroke-linejoin:miter;stroke-opacity:1"
     d="M 15.81901,90.841855 C 6.38505,70.215195 4.149982,42.908424 4.822952,4.748967 h 69.26414 69.264138 c 0.67297,38.159457 -1.5621,65.466228 -10.99606,86.092888 C 119.87678,118.12494 97.718294,135.78421 74.087092,149.17912 50.455892,135.78421 28.2974,118.12494 15.81901,90.841855 Z m -3.282138,4.92886 C -1.983929,64.944525 -0.272989,29.825814 0.482961,0 h 73.604131 73.604128 c 0.75595,29.825814 2.46689,64.944525 -12.05391,95.770715 -12.58857,24.136695 -29.89925,41.005325 -61.550218,58.553335 -31.65097,-17.54801 -48.96165,-34.41664 -61.55022,-58.553335 z"
     id="path4650" />
</svg>
