<?xml version="1.0" encoding="UTF-8" standalone="no"?>
<!-- Created with Inkscape (http://www.inkscape.org/) -->

<svg
   width="169.80023mm"
   height="160.31599mm"
   viewBox="0 0 169.80023 160.31599"
   version="1.1"
   id="svg1"
   inkscape:version="1.3.2 (091e20ef0f, 2023-11-25, custom)"
   sodipodi:docname="psa.svg"
   xmlns:inkscape="http://www.inkscape.org/namespaces/inkscape"
   xmlns:sodipodi="http://sodipodi.sourceforge.net/DTD/sodipodi-0.dtd"
   xmlns="http://www.w3.org/2000/svg"
   xmlns:svg="http://www.w3.org/2000/svg">
  <sodipodi:namedview
     id="namedview1"
     pagecolor="#ffffff"
     bordercolor="#000000"
     borderopacity="0.25"
     inkscape:showpageshadow="2"
     inkscape:pageopacity="0.0"
     inkscape:pagecheckerboard="0"
     inkscape:deskcolor="#d1d1d1"
     inkscape:document-units="mm"
     inkscape:zoom="0.65767857"
     inkscape:cx="472.11512"
     inkscape:cy="306.38067"
     inkscape:window-width="1920"
     inkscape:window-height="1011"
     inkscape:window-x="0"
     inkscape:window-y="32"
     inkscape:window-maximized="1"
     inkscape:current-layer="layer1" />
  <defs
     id="defs1">
    <clipPath
       clipPathUnits="userSpaceOnUse"
       id="clipPath11">
      <path
         d="M 0,841.89 H 1190.551 V 0 H 0 Z"
         transform="translate(-326.90468,-434.96831)"
         id="path11" />
    </clipPath>
    <clipPath
       clipPathUnits="userSpaceOnUse"
       id="clipPath14">
      <path
         d="M 0,841.89 H 1190.551 V 0 H 0 Z"
         transform="translate(-461.00221,-411.19061)"
         id="path14" />
    </clipPath>
    <clipPath
       clipPathUnits="userSpaceOnUse"
       id="clipPath16">
      <path
         d="M 0,841.89 H 1190.551 V 0 H 0 Z"
         transform="translate(-578.96259,-364.10311)"
         id="path16" />
    </clipPath>
    <clipPath
       clipPathUnits="userSpaceOnUse"
       id="clipPath18">
      <path
         d="M 0,841.89 H 1190.551 V 0 H 0 Z"
         transform="translate(-622.13754,-374.53091)"
         id="path18" />
    </clipPath>
  </defs>
  <g
     inkscape:label="Layer 1"
     inkscape:groupmode="layer"
     id="layer1"
     transform="translate(20.108326,-67.468746)">
    <path
       id="path10"
       d="M 0,0 C -0.228,-0.87 -1.159,-1.42 -2.112,-1.248 -3.064,-1.075 -3.7,-0.241 -3.554,0.644 1.497,30.2 17.16,66.712 59.23,96.026 c 34.839,24.275 89.582,52.238 168.643,52.401 85.842,0.177 138.889,-32.045 170.73,-60.993 90.945,-82.683 52.375,-169.385 43.176,-186.839 -1.105,-1.94 -3.281,-3.16 -5.657,-3.172 -8.542,-0.055 -29.135,-0.158 -41.022,-0.217 -1.741,-0.009 -3.346,0.859 -4.192,2.263 -0.843,1.404 -0.789,3.121 0.141,4.477 11.852,18.001 39.215,69.241 8.751,121.572 -21.012,36.095 -68.213,88.367 -170.148,93.257 C 144.028,122.884 90.356,99.82 55.05,75.639 21.422,52.607 6.377,24.239 0,0"
       style="fill:#ed6d1e;fill-opacity:1;fill-rule:evenodd;stroke:none"
       transform="matrix(0.35277776,0,0,-0.35277776,-18.847202,142.6796)"
       clip-path="url(#clipPath11)" />
    <path
       id="path12"
       d="m -11.695653,189.75895 c 0.285254,-1.36426 -0.500228,-2.03812 -2.344043,-2.03812 h -3.121256 l -1.604037,7.5737 h 1.72806 l 0.570508,-2.6541 h 1.310514 c 2.005046,0 2.960026,-0.5333 3.278353,-2.05052 z m -1.876888,0.83096 c -0.181901,0.83095 -0.58291,1.16168 -1.471745,1.16168 h -1.227832 l 0.661459,-3.15433 h 1.227832 c 0.876432,0 1.174088,0.34314 0.992187,1.16169 z m 5.0084797,-0.60358 c 1.3890624,0 1.6743164,0.26458 1.5461586,0.81028 l -0.099219,0.48783 c -0.6407876,-0.0331 -1.3229166,-0.0909 -1.95957,-0.12403 -1.1038083,-0.0455 -2.0381183,0.58291 -2.3357743,1.95957 l -0.04547,0.20258 c -0.28112,1.41386 0.310058,2.06292 2.0959953,2.06292 l 2.8690756,-0.20671 0.8557616,-3.99355 c 0.3059243,-1.51722 -0.285254,-2.14147 -2.5755532,-2.14147 l -2.0133133,0.20257 -0.161231,0.74001 z m 0.7524086,4.55579 h -1.3229166 c -0.8433593,0 -0.9880537,-0.31833 -0.8309567,-1.17409 l 0.045475,-0.24805 c 0.181901,-0.85576 0.4919595,-1.17408 1.3229166,-1.17408 h 1.3435872 z m 8.27546354,-3.12126 0.23977881,-0.59117 C 1.1459398,189.668 0.19095947,189.01068 -1.0037997,189.01068 l -2.5507486,0.21497 -1.2857095,6.06888 h 1.4469402 c 0.3720701,-1.76527 0.7482744,-3.57601 1.1244791,-5.34128 h 0.7648109 c 0.81855482,0 1.18235689,0.31833 0.94257808,1.46761 z m 7.56232896,-4.17545 c -1.331185,0 -1.434538,0 -1.7776694,1.60403 l -0.09095,0.39688 -1.9471682,-0.1695 c -0.8971025,0 -1.9926429,0.31833 -2.356445,2.02572 l -0.4795573,2.25722 c -0.2811197,1.37666 0.4464844,2.03812 2.0050456,2.03812 l 2.9600259,-0.21911 z m -3.030306,7.27191 H 3.6853195 c -0.8185545,0 -1.0128581,-0.3514 -0.8309571,-1.15756 l 0.4795573,-2.25722 c 0.1694988,-0.81856 0.5002279,-1.14929 1.331185,-1.14929 H 5.975619 Z m 7.1272132,-0.0331 h -1.227832 c -0.818555,0 -1.0831378,-0.33899 -0.9095052,-1.16995 0.1570962,-0.71934 0.2935222,-1.43454 0.4547532,-2.15388 0.239778,-1.1038 0.293522,-1.58336 0.157096,-1.79833 -0.169499,-0.26045 -0.7978844,-0.25219 -1.1038087,-0.23978 h -0.111621 c -0.2976563,1.37666 -0.5953125,2.81119 -0.8888349,4.19199 -0.3100585,1.39733 0.3307292,2.05879 2.1745446,2.05879 l 2.778125,-0.19431 1.285709,-6.05647 H 13.25166 Z m 3.463354,-1.13688 c -0.297656,1.37666 0.442351,2.03812 2.038118,2.03812 h 0.421682 c 1.591631,0 2.596222,-0.66146 2.889744,-2.03812 l 0.479559,-2.20762 c 0.318325,-1.51722 -0.682131,-2.00504 -1.500685,-2.02985 -0.661458,0.0579 -1.368393,0.13643 -2.029851,0.19431 0.03721,-0.13643 0.07028,-0.27285 0.115757,-0.47956 0.09095,-0.42995 0.169499,-0.93018 0.09095,-1.19476 -0.124022,-0.3638 -0.500228,-0.38447 -1.207159,-0.39687 z m 3.861263,0.0579 c -0.173634,0.80615 -0.512629,1.16168 -1.335317,1.16168 h -0.202572 c -0.818557,0 -1.058333,-0.35553 -0.888834,-1.16168 l 0.7152,-3.41891 h 1.289844 c 0.830957,0 1.070737,0.33073 0.897103,1.15341 z m 5.986197,-5.75055 c 0.03721,-0.18191 -0.07855,-0.40101 -0.694531,-0.40101 h -0.169499 c -0.615982,0 -0.843358,0.2191 -0.876431,0.40101 l -0.103353,0.50022 c -0.04548,0.1819 0.05788,0.38861 0.682128,0.38861 h 0.181903 c 0.615981,0 0.822688,-0.20671 0.868164,-0.38861 z m -0.467155,1.46761 h -1.442805 l -1.310513,6.17223 h 1.44694 z m 3.28042,5.37435 c -1.083137,0 -1.252636,-0.19431 -1.045929,-1.17409 l 0.475421,-2.22829 c 0.206706,-0.97979 0.458886,-1.17409 1.550292,-1.17409 h 1.389063 l 0.157099,-0.74001 -1.434539,-0.14882 c -1.112076,0 -2.740918,0.0248 -3.187404,2.09599 l -0.467152,2.19522 c -0.372071,1.77767 0.810285,2.06292 2.302701,2.06292 l 1.500684,-0.14883 0.16123,-0.74 z m 9.382372,-5.37435 H 36.07094 l -2.687175,2.27789 -0.09095,0.45476 1.480012,3.43958 h 1.719792 c -0.640789,-1.23197 -1.289844,-2.55075 -1.926499,-3.78272 z m -3.894335,-1.66192 c -0.169499,-0.22737 -0.752408,-0.21497 -1.070733,-0.21497 h -0.124027 l -1.707387,8.04912 h 1.446939 l 1.306382,-6.17223 c 0.219106,-1.03767 0.285252,-1.46761 0.148826,-1.66192 z m 10.339422,1.66192 h -1.446942 l -1.13688,5.36194 h -1.231967 c -1.012856,0 -1.091406,-0.29352 -0.909507,-1.14928 l 0.566375,-2.6541 c 0.330729,-1.55856 0.330729,-1.55856 -1.13688,-1.55856 l -0.888834,4.21266 c -0.351402,1.66191 0.467152,2.02571 1.434536,2.02571 l 2.017447,-0.1819 -0.136426,0.61599 c -0.0248,0.1695 -0.252179,0.51263 -1.004587,0.51263 h -3.071647 l -0.161233,0.68213 3.06338,0.1943 c 1.740461,0 2.459796,-0.55811 2.699576,-1.71979 z m -0.810288,-2.6293 h -1.149283 l -0.86403,2.02572 h 0.649054 z m 15.530833,2.68717 -1.525485,-0.16123 c -1.831414,0 -2.869078,0.44649 -3.199807,1.98438 -0.05374,0.24805 -0.04547,0.66972 -0.03306,0.86403 l 2.480469,1.38906 -0.03306,0.21497 c -0.124023,0.61599 -0.318326,1.03767 -1.500682,1.03767 h -1.608172 l -0.144692,0.7276 1.570961,0.16123 c 1.934768,0 2.877344,-0.45888 3.195673,-1.99264 0.0372,-0.1943 0.07028,-0.68626 0.09095,-0.95912 l -2.501142,-1.39733 0.0083,-0.10335 c 0.128157,-0.60358 0.343133,-1.03766 1.434539,-1.03766 h 1.60817 z m -0.06821,7.99125 c 0.706935,0 1.070737,-0.0207 1.368393,-0.39688 0.169499,-0.22737 0.293522,-0.69453 0.384471,-1.11621 l 0.115757,-0.5457 1.947168,0.1819 c 0.818553,-0.0248 2.005044,-0.38861 2.356446,-2.02572 l 0.479555,-2.23242 c 0.281122,-1.36839 -0.512628,-2.02571 -2.050521,-2.02571 l -2.926951,0.21497 z m 4.692223,-3.90261 c -0.1695,0.81856 -0.500229,1.14929 -1.331186,1.14929 H 60.77744 l 0.934311,-4.43177 h 1.273309 c 0.810285,0 1.037661,0.34313 0.876431,1.14101 z m 8.718845,-2.14147 c 0.285253,-1.38906 -0.454751,-2.06292 -2.033986,-2.06292 H 69.69059 c -1.604038,0 -2.629299,0.67386 -2.914551,2.06292 -0.144696,0.72761 -0.293522,1.45521 -0.454752,2.18695 -0.305925,1.40973 0.409275,2.05879 2.025717,2.05879 h 0.421679 c 1.608169,0.0124 2.608625,-0.63666 2.906282,-2.05879 z m -1.988509,2.24069 c -0.194303,0.85576 -0.582909,1.18649 -1.413866,1.17409 -0.636655,0 -1.19476,-0.10335 -0.967384,-1.17409 l 0.487825,-2.29857 c 0.181903,-0.81855 0.595312,-1.17408 1.401466,-1.17408 h 0.07855 c 0.810285,0 1.083137,0.35553 0.901235,1.17408 z m 5.599659,-5.90765 c -0.169499,-0.22737 -0.752408,-0.21497 -1.070737,-0.21497 h -0.124022 l -1.707388,8.04912 h 1.446939 l 1.306378,-6.17223 c 0.21911,-1.03767 0.285256,-1.46761 0.14883,-1.66192 z m 2.856671,7.03627 c -0.909504,0 -1.000453,-0.42168 -0.921907,-0.77308 l 0.136426,-0.66146 1.959571,0.1695 c 1.504816,0 1.98024,-0.42995 2.31097,-1.95544 0.0248,-0.0579 0.0248,-0.12816 0.03305,-0.1819 0.31006,-1.40147 -0.396875,-2.06292 -2.025717,-2.06292 h -0.409275 c -1.570965,0 -2.616895,0.68212 -2.914551,2.06292 l -0.467156,2.22829 c -0.293521,1.38906 0.31006,2.06292 2.005045,2.06292 l 2.707844,-0.1819 0.161234,-0.70693 z m 1.992644,-3.22048 c -0.190168,1.05833 -0.636655,1.16995 -1.715657,1.16995 h -0.921907 l 0.293521,-1.40973 c 0.181903,-0.78548 0.537436,-1.16168 1.331186,-1.16168 h 0.227376 c 0.830957,0 0.992187,0.33899 0.830957,1.16168 z m 9.030973,-2.15387 h -1.558562 l -2.687175,2.27789 -0.09095,0.45476 1.480012,3.43958 h 1.719791 c -0.640785,-1.23197 -1.289843,-2.55075 -1.926494,-3.78272 z m -3.894335,-1.66192 c -0.169499,-0.22737 -0.752408,-0.21497 -1.070737,-0.21497 h -0.124022 l -1.707388,8.04912 h 1.446939 l 1.306378,-6.17223 c 0.21911,-1.03767 0.285256,-1.46761 0.14883,-1.66192 z m 12.023037,1.71979 -1.525489,-0.16123 c -1.831411,0 -2.869075,0.44649 -3.199804,1.98438 -0.05374,0.24805 -0.04547,0.66972 -0.03306,0.86403 l 2.480469,1.38906 -0.03306,0.21497 c -0.124022,0.61599 -0.318325,1.03767 -1.500681,1.03767 H 92.33833 l -0.144691,0.7276 1.570961,0.16123 c 1.934768,0 2.877344,-0.45888 3.195669,-1.99264 0.03721,-0.1943 0.07028,-0.68626 0.09095,-0.95912 l -2.501142,-1.39733 0.0083,-0.10335 c 0.128157,-0.60358 0.343133,-1.03766 1.434539,-1.03766 h 1.608169 z m 0.363802,-2.71198 h -0.748274 l -0.979784,1.23197 h -0.500228 l -0.367936,-1.23197 h -1.260906 l 0.864031,2.05053 h 1.368389 z m 2.51561,8.02846 c -0.909505,0 -1.000455,-0.42168 -0.921909,-0.77308 l 0.136427,-0.66146 1.959572,0.1695 c 1.50481,0 1.98024,-0.42995 2.31097,-1.95544 0.0248,-0.0579 0.0248,-0.12816 0.033,-0.1819 0.31006,-1.40147 -0.39687,-2.06292 -2.02572,-2.06292 h -0.40927 c -1.57097,0 -2.616893,0.68212 -2.91455,2.06292 l -0.467155,2.22829 c -0.293522,1.38906 0.310056,2.06292 2.005045,2.06292 l 2.70784,-0.1819 0.16123,-0.70693 z m 1.99264,-3.22048 c -0.19017,1.05833 -0.63666,1.16995 -1.71566,1.16995 h -0.921902 l 0.293522,-1.40973 c 0.1819,-0.78548 0.53743,-1.16168 1.33118,-1.16168 h 0.22738 c 0.83096,0 0.99219,0.33899 0.83096,1.16168 z m 7.53856,0.14469 0.23978,-0.59117 c 0.44234,-1.16169 -0.51264,-1.81901 -1.7074,-1.81901 l -2.55074,0.21497 -1.28571,6.06888 h 1.44694 c 0.37207,-1.76527 0.74827,-3.57601 1.12448,-5.34128 h 0.76481 c 0.81855,0 1.18236,0.31833 0.94258,1.46761 z m 10.419,-0.33899 c 0.29765,-1.37666 -0.42168,-2.03812 -1.95957,-2.06293 l -2.33164,0.31006 c -0.45475,-0.1943 -0.87644,-0.26458 -1.38906,-0.26458 l -2.80293,0.21911 -1.27331,6.011 h 1.44694 l 1.12448,-5.2958 1.14928,-0.0124 c 0.83096,0 1.03766,0.32247 0.85576,1.14102 l -0.87643,4.16719 h 1.48001 c 0.10336,-0.51263 0.37621,-1.81074 0.61599,-2.90215 l 0.26045,-1.23197 c 0.0786,-0.34313 0.0703,-0.7276 -0.0703,-1.20716 h 1.45934 c 0.81855,0 1.02526,0.35554 0.84336,1.17409 l -0.55811,2.61689 c -0.1819,0.90124 -0.2191,1.23197 -0.0703,1.37666 0.14883,0.18604 0.81029,0.17364 1.11621,0.17364 h 0.0909 z m 2.37918,4.21266 1.31051,-6.17223 h -1.44693 l -1.31052,6.17223 z m 2.40192,-8.80153 h -1.14928 l -0.86403,2.02572 h 0.64906 z m 4.70256,4.92786 0.23978,-0.59117 c 0.44235,-1.16169 -0.51263,-1.81901 -1.70739,-1.81901 l -2.55075,0.21497 -1.28571,6.06888 h 1.44694 c 0.37207,-1.76527 0.74827,-3.57601 1.12448,-5.34128 h 0.76481 c 0.81855,0 1.18236,0.31833 0.94258,1.46761 z m 0.59117,-4.95267 h -0.74827 l -0.97978,1.23197 h -0.50023 l -0.3638,-1.23197 h -1.26504 l 0.86403,2.05053 h 1.36839 z m 5.46634,2.71198 -1.52549,-0.16123 c -1.83141,0 -2.86908,0.44649 -3.1998,1.98438 -0.0537,0.24805 -0.0455,0.66972 -0.0331,0.86403 l 2.48047,1.38906 -0.0331,0.21497 c -0.12402,0.61599 -0.31832,1.03767 -1.50068,1.03767 h -1.60817 l -0.1447,0.7276 1.57097,0.16123 c 1.93476,0 2.87734,-0.45888 3.19567,-1.99264 0.0372,-0.1943 0.0703,-0.68626 0.0909,-0.95912 l -2.50114,-1.39733 0.008,-0.10335 c 0.12815,-0.60358 0.34313,-1.03766 1.43453,-1.03766 h 1.60817 z m 7.11688,-0.0579 h -1.55857 l -2.68717,2.27789 -0.0909,0.45476 1.48001,3.43958 h 1.71979 c -0.64078,-1.23197 -1.28984,-2.55075 -1.92649,-3.78272 z m -3.89434,-1.66192 c -0.1695,-0.22737 -0.75241,-0.21497 -1.07074,-0.21497 h -0.12402 l -1.70739,8.04912 h 1.44694 l 1.30638,-6.17223 c 0.21911,-1.03767 0.28526,-1.46761 0.14883,-1.66192 z m 10.34045,1.66192 h -1.44694 l -1.13688,5.36194 h -1.23197 c -1.01285,0 -1.0914,-0.29352 -0.9095,-1.14928 l 0.56638,-2.6541 c 0.33072,-1.55856 0.33072,-1.55856 -1.13689,-1.55856 l -0.88883,4.21266 c -0.3514,1.66191 0.46715,2.02571 1.43454,2.02571 l 2.01745,-0.1819 -0.13643,0.61599 c -0.0248,0.1695 -0.25218,0.51263 -1.00459,0.51263 h -3.07165 l -0.16123,0.68213 3.06338,0.1943 c 1.74046,0 2.4598,-0.55811 2.69958,-1.71979 z m -0.81028,-2.6293 h -1.14929 l -0.86403,2.02572 h 0.64906 z m 0,0"
       style="fill:#231f20;fill-opacity:1;fill-rule:nonzero;stroke:none;stroke-width:0.352778"
       aria-label="Pardubický   spolek šermířský" />
    <path
       id="path13"
       d="M 0,0 -2.281,-11.079 C -3.91,-18.9 -6.028,-23.951 -18.085,-23.951 h -12.383 l 7.983,36.334 H -9.613 C 1.792,12.383 1.629,7.658 0,0 m 34.216,-0.489 c 4.399,20.53 -9.287,30.306 -38.452,30.306 h -49.206 l -23.3,-106.721 h 34.705 l 7.821,35.357 h 14.175 c 31.121,0 46.925,7.82 51.813,29.979 z"
       style="fill:#231f20;fill-opacity:1;fill-rule:nonzero;stroke:none"
       transform="matrix(0.35277776,0,0,-0.35277776,28.459424,151.06784)"
       clip-path="url(#clipPath14)" />
    <path
       id="path15"
       d="m 0,0 c 1.466,6.681 2.118,13.36 2.77,20.204 l -40.896,26.232 c 2.769,12.709 8.798,12.872 22.321,12.872 H 7.821 l 3.584,16.456 -27.758,2.056 c 7.545,28.849 12.758,48.736 13.178,50.209 1.656,5.809 11.658,6.11 11.658,6.11 l 6.102,21.118 48.671,-10.947 0.537,4.012 -55.133,13.517 c 0,0 13.966,67.229 15.89,75.044 1.924,7.815 3.072,21.117 5.286,26.444 2.214,5.326 5.211,9.25 6.715,10.779 1.505,1.529 1.533,2.558 -1.004,5.083 -2.538,2.524 -7.23,4.543 -7.23,4.543 l -1.053,0.259 c 0,0 -5.093,0.39 -8.512,-0.667 -3.419,-1.058 -3.873,-1.982 -3.25,-4.035 0.623,-2.053 1.455,-6.92 0.943,-12.665 -0.512,-5.746 -5.671,-18.06 -7.596,-25.875 -1.924,-7.815 -20.768,-73.843 -20.768,-73.843 l -55.105,13.625 -1.388,-3.803 48.191,-12.901 -4.401,-21.538 c 0,0 8.719,-4.909 7.488,-10.823 -0.32,-1.538 -5.168,-22.58 -12.163,-52.857 -28.627,0.337 -42.153,-14.752 -46.141,-33.314 -1.141,-5.702 -0.489,-10.102 0.326,-13.523 L -35.194,4.726 C -38.126,-8.31 -38.29,-12.22 -55.072,-12.22 h -31.283 l -3.421,-16.13 35.227,-2.211 c -16.371,-70.721 -31.916,-137.815 -31.916,-137.815 0,0 -0.173,-0.701 0.485,-0.986 0.657,-0.286 1.987,-0.613 1.987,-0.613 l 0.091,-0.023 c 0,0 1.321,-0.325 2.036,-0.377 0.715,-0.052 0.887,0.648 0.887,0.648 0,0 17.691,67.827 36.205,138.747 C -19.275,-30.866 -4.085,-18.458 0,0"
       style="fill:#231f20;fill-opacity:1;fill-rule:nonzero;stroke:none"
       transform="matrix(0.35277776,0,0,-0.35277776,70.073223,167.67926)"
       clip-path="url(#clipPath16)" />
    <path
       id="path17"
       d="m 0,0 20.855,50.184 h 7.332 L 26.884,0 Z M 65.174,-40.244 58.493,66.477 H 7.006 L -46.11,-40.244 h 29.817 l 8.961,22.647 h 33.891 l -0.327,-22.647 z"
       style="fill:#231f20;fill-opacity:1;fill-rule:nonzero;stroke:none"
       transform="matrix(0.35277776,0,0,-0.35277776,85.304385,164.00057)"
       clip-path="url(#clipPath18)" />
  </g>
</svg>
